%TF.GenerationSoftware,KiCad,Pcbnew,8.0.1-rc1*%
%TF.CreationDate,2024-04-25T22:15:09-05:00*%
%TF.ProjectId,USB-HUB,5553422d-4855-4422-9e6b-696361645f70,rev?*%
%TF.SameCoordinates,PXa983cd0PYa38e500*%
%TF.FileFunction,Copper,L2,Inr*%
%TF.FilePolarity,Positive*%
%FSLAX46Y46*%
G04 Gerber Fmt 4.6, Leading zero omitted, Abs format (unit mm)*
G04 Created by KiCad (PCBNEW 8.0.1-rc1) date 2024-04-25 22:15:09*
%MOMM*%
%LPD*%
G01*
G04 APERTURE LIST*
G04 Aperture macros list*
%AMRoundRect*
0 Rectangle with rounded corners*
0 $1 Rounding radius*
0 $2 $3 $4 $5 $6 $7 $8 $9 X,Y pos of 4 corners*
0 Add a 4 corners polygon primitive as box body*
4,1,4,$2,$3,$4,$5,$6,$7,$8,$9,$2,$3,0*
0 Add four circle primitives for the rounded corners*
1,1,$1+$1,$2,$3*
1,1,$1+$1,$4,$5*
1,1,$1+$1,$6,$7*
1,1,$1+$1,$8,$9*
0 Add four rect primitives between the rounded corners*
20,1,$1+$1,$2,$3,$4,$5,0*
20,1,$1+$1,$4,$5,$6,$7,0*
20,1,$1+$1,$6,$7,$8,$9,0*
20,1,$1+$1,$8,$9,$2,$3,0*%
G04 Aperture macros list end*
%TA.AperFunction,ComponentPad*%
%ADD10R,1.524000X1.524000*%
%TD*%
%TA.AperFunction,ComponentPad*%
%ADD11C,1.524000*%
%TD*%
%TA.AperFunction,ComponentPad*%
%ADD12C,3.500000*%
%TD*%
%TA.AperFunction,ComponentPad*%
%ADD13C,2.600000*%
%TD*%
%TA.AperFunction,ComponentPad*%
%ADD14R,3.500000X3.500000*%
%TD*%
%TA.AperFunction,ComponentPad*%
%ADD15RoundRect,0.750000X-1.000000X0.750000X-1.000000X-0.750000X1.000000X-0.750000X1.000000X0.750000X0*%
%TD*%
%TA.AperFunction,ComponentPad*%
%ADD16RoundRect,0.875000X-0.875000X0.875000X-0.875000X-0.875000X0.875000X-0.875000X0.875000X0.875000X0*%
%TD*%
%TA.AperFunction,ComponentPad*%
%ADD17O,1.200000X1.900000*%
%TD*%
%TA.AperFunction,ComponentPad*%
%ADD18C,1.450000*%
%TD*%
%TA.AperFunction,ViaPad*%
%ADD19C,0.812800*%
%TD*%
G04 APERTURE END LIST*
D10*
%TO.N,/+5V_FILT_PORT2*%
%TO.C,J3*%
X12128300Y22600800D03*
D11*
%TO.N,/USB_PORT2_D_N*%
X12128300Y20100800D03*
%TO.N,/USB_PORT2_D_P*%
X12128300Y18100800D03*
%TO.N,GNDREF*%
X12128300Y15600800D03*
D12*
%TO.N,GNDPWR*%
X9418300Y25670800D03*
X9418300Y12530800D03*
%TD*%
D13*
%TO.N,GNDREF*%
%TO.C,TP3*%
X47040800Y2209800D03*
X54660800Y2209800D03*
%TD*%
D10*
%TO.N,/+5V_FILT_PORT3*%
%TO.C,J4*%
X89585800Y15600800D03*
D11*
%TO.N,/USB_PORT3_D_N*%
X89585800Y18100800D03*
%TO.N,/USB_PORT3_D_P*%
X89585800Y20100800D03*
%TO.N,GNDREF*%
X89585800Y22600800D03*
D12*
%TO.N,GNDPWR*%
X92295800Y12530800D03*
X92295800Y25670800D03*
%TD*%
D10*
%TO.N,/+5V_FILT_PORT1*%
%TO.C,J2*%
X12128300Y42090800D03*
D11*
%TO.N,/USB_PORT1_D_N*%
X12128300Y39590800D03*
%TO.N,/USB_PORT1_D_P*%
X12128300Y37590800D03*
%TO.N,GNDREF*%
X12128300Y35090800D03*
D12*
%TO.N,GNDPWR*%
X9418300Y45160800D03*
X9418300Y32020800D03*
%TD*%
D14*
%TO.N,/+5V*%
%TO.C,J6*%
X60502800Y44088800D03*
D15*
%TO.N,GNDREF*%
X60502800Y50088800D03*
D16*
X55802800Y47088800D03*
%TD*%
D13*
%TO.N,/+5V_OUT*%
%TO.C,TP1*%
X58851800Y2209800D03*
X66471800Y2209800D03*
%TD*%
D10*
%TO.N,/+5V_FILT_PORT4*%
%TO.C,J5*%
X89585800Y34743000D03*
D11*
%TO.N,/USB_PORT4_D_N*%
X89585800Y37243000D03*
%TO.N,/USB_PORT4_D_P*%
X89585800Y39243000D03*
%TO.N,GNDREF*%
X89585800Y41743000D03*
D12*
%TO.N,GNDPWR*%
X92295800Y31673000D03*
X92295800Y44813000D03*
%TD*%
D17*
%TO.N,GNDPWR*%
%TO.C,J1*%
X44876600Y55745900D03*
D18*
X43876600Y53045900D03*
X38876600Y53045900D03*
D17*
X37876600Y55745900D03*
%TD*%
D13*
%TO.N,/3V3_OUT*%
%TO.C,TP2*%
X35229800Y2209800D03*
X42849800Y2209800D03*
%TD*%
D19*
%TO.N,GNDREF*%
X61645800Y47675800D03*
X66598800Y50342800D03*
X20878800Y32054800D03*
X22910800Y41960800D03*
X52120800Y26720800D03*
X68630800Y11480800D03*
X30530800Y26720800D03*
X87553800Y48183800D03*
X83870800Y52120800D03*
X91135200Y22631400D03*
X78790800Y26720800D03*
X44246800Y22529800D03*
X67868800Y37515800D03*
X68517556Y50368512D03*
X22910800Y21640800D03*
X81203800Y54533800D03*
X88950800Y1320800D03*
X13665200Y35128200D03*
X27990800Y41960800D03*
X73710800Y16560800D03*
X59105800Y47675800D03*
X78790800Y6400800D03*
X81457800Y28752800D03*
X24993600Y27000200D03*
X52120800Y27990800D03*
X29921200Y45618400D03*
X22910800Y1320800D03*
X78790800Y41960800D03*
X37693600Y45085000D03*
X58470800Y16560800D03*
X17830800Y16560800D03*
X50850800Y29260800D03*
X59334400Y29032200D03*
X30530800Y29260800D03*
X50850800Y6400800D03*
X88950800Y11480800D03*
X17830800Y52120800D03*
X68630800Y16560800D03*
X39090600Y32588200D03*
X49580800Y29260800D03*
X59740800Y24815800D03*
X94030800Y6400800D03*
X71805800Y54533800D03*
X73075800Y9855200D03*
X74345800Y50469800D03*
X17830800Y1320800D03*
X40944800Y22529800D03*
X49580800Y27990800D03*
X72313800Y39420800D03*
X83870800Y41960800D03*
X43230800Y36880800D03*
X50850800Y16230600D03*
X82042000Y12496800D03*
X78790800Y16560800D03*
X78079600Y29362400D03*
X17830800Y21640800D03*
X78790800Y21640800D03*
X58470800Y11480800D03*
X63539221Y52132379D03*
X15290800Y36880800D03*
X43230800Y16560800D03*
X94945200Y9525000D03*
X38150800Y36880800D03*
X58470800Y52120800D03*
X47802800Y38785800D03*
X17830800Y47040800D03*
X12115800Y14198600D03*
X29260800Y35864800D03*
X43230800Y11480800D03*
X22479000Y49580800D03*
X55295800Y23672800D03*
X30403800Y31572200D03*
X43230800Y41960800D03*
X27990800Y52120800D03*
X78790800Y36880800D03*
X66090800Y21640800D03*
X67614800Y49961800D03*
X50850800Y11480800D03*
X83870800Y16309054D03*
X78790800Y1320800D03*
X79552800Y15671800D03*
X99110800Y6400800D03*
X15519400Y30073600D03*
X80746600Y26720800D03*
X52755800Y45770800D03*
X38150800Y41960800D03*
X17830800Y36880800D03*
X61391800Y24815800D03*
X17830800Y26720800D03*
X86410800Y36880800D03*
X52755800Y48310800D03*
X83870800Y1320800D03*
X83870800Y45135800D03*
X37515800Y23672800D03*
X27990800Y21640800D03*
X12750800Y8940800D03*
X33070800Y21640800D03*
X52603400Y10134600D03*
X38150800Y11480800D03*
X43865800Y49580800D03*
X53390800Y41960800D03*
X27990800Y16560800D03*
X81584800Y34721800D03*
X88950800Y31800800D03*
X12141200Y33502600D03*
X50850800Y27990800D03*
X22910800Y16560800D03*
X24511000Y31572200D03*
X50850800Y26720800D03*
X33070800Y41960800D03*
X22910800Y6400800D03*
X49580800Y26720800D03*
X26974800Y30530800D03*
X83870800Y26720800D03*
X56184800Y37642800D03*
X61137800Y35864800D03*
X7670800Y8940800D03*
X89585800Y43357800D03*
X78028800Y47802800D03*
X45770800Y6400800D03*
X83870800Y46913800D03*
X57619900Y26212800D03*
X54025800Y35610800D03*
X87426800Y10210800D03*
X33070800Y52120800D03*
X17830800Y11480800D03*
X49174400Y10109200D03*
X22910800Y52120800D03*
X26187400Y48234600D03*
X87909400Y22580600D03*
X48310800Y41960800D03*
X29768800Y16052800D03*
X33070800Y11480800D03*
X55930800Y6400800D03*
X48310800Y16560800D03*
X13741400Y15595600D03*
X45516800Y22529800D03*
X12750800Y1320800D03*
X88011000Y41743000D03*
X19253200Y49657000D03*
X94030800Y1320800D03*
X89535000Y24028400D03*
X80822800Y45135800D03*
X20929600Y16713200D03*
X68249800Y27533600D03*
X36262375Y27727975D03*
X7670800Y1320800D03*
X88950800Y47040800D03*
X30530800Y24180800D03*
X83870800Y6400800D03*
X19354800Y29565600D03*
X83870800Y21640800D03*
X38150800Y16560800D03*
X53390800Y36880800D03*
X33197800Y44627800D03*
X42595800Y22529800D03*
X20878800Y36372800D03*
X83870800Y11480800D03*
X45135800Y33451800D03*
X70408800Y47548800D03*
X22910800Y11480800D03*
X27990800Y36880800D03*
X53390800Y52120800D03*
X68973700Y31038800D03*
X33070800Y16560800D03*
X17830800Y31800800D03*
X22453600Y29565600D03*
X35610800Y52120800D03*
X88950800Y26720800D03*
X49453800Y38785800D03*
X83870800Y35737800D03*
X48310800Y52120800D03*
X15290800Y40690800D03*
X10591800Y15646400D03*
X68757800Y24282400D03*
X10744200Y35153600D03*
X52755800Y16179800D03*
X30022800Y12496800D03*
X54102000Y34569400D03*
X17830800Y40690800D03*
X52120800Y29260800D03*
X91109800Y41706800D03*
%TO.N,+3V3*%
X47066200Y24841200D03*
X53822600Y16179800D03*
X54914800Y24841200D03*
X60299600Y29692600D03*
X44145200Y30911800D03*
X53314600Y38201600D03*
%TO.N,/3V3_SYS*%
X29743400Y14909800D03*
X71932800Y40563800D03*
%TO.N,/+5V_FILT*%
X71358800Y52956800D03*
X39116000Y48463200D03*
X30378400Y35915600D03*
X72948800Y24180800D03*
X80822800Y15671800D03*
X73304400Y49784000D03*
%TO.N,/+5V_PORT3*%
X87426800Y9067800D03*
X71551800Y32562800D03*
%TO.N,/+5V_FILT_PORT3*%
X82600800Y28752800D03*
X82600800Y15595600D03*
%TO.N,/+5V_FILT_PORT4*%
X82346800Y46913800D03*
X82727800Y34743000D03*
%TO.N,/USB_HUB_NOCS1*%
X59207400Y23774400D03*
X34493200Y44704000D03*
%TO.N,/USB_HUB_PWRTPWR1*%
X35610800Y44678600D03*
X57835800Y23774400D03*
%TO.N,/USB_HUB_NOCS2*%
X62687200Y28676600D03*
X25857200Y30556200D03*
%TO.N,/USB_HUB_PWRTPWR2*%
X61518800Y28702000D03*
X28117800Y30632400D03*
%TO.N,/USB_HUB_NOCS3*%
X68249800Y28752800D03*
X63703200Y34112200D03*
%TO.N,/USB_HUB_PWRTPWR3*%
X64008000Y32943800D03*
X68275200Y26441400D03*
%TO.N,/USB_HUB_NOCS4*%
X78790800Y55041800D03*
X57886600Y36753800D03*
%TO.N,/USB_HUB_PWRTPWR4*%
X75361800Y51358800D03*
X59385200Y36753800D03*
%TD*%
%TA.AperFunction,Conductor*%
%TO.N,GNDREF*%
G36*
X37063616Y56799016D02*
G01*
X37119032Y56743600D01*
X37139316Y56667900D01*
X37119032Y56592200D01*
X37113801Y56583787D01*
X37074332Y56524719D01*
X37006091Y56359971D01*
X37006091Y56359970D01*
X36971300Y56185064D01*
X36971300Y55306737D01*
X37006091Y55131831D01*
X37006091Y55131830D01*
X37074333Y54967082D01*
X37074336Y54967076D01*
X37173403Y54818811D01*
X37173408Y54818805D01*
X37299504Y54692709D01*
X37299510Y54692704D01*
X37447775Y54593637D01*
X37447777Y54593636D01*
X37447780Y54593634D01*
X37511494Y54567243D01*
X37612530Y54525392D01*
X37612533Y54525392D01*
X37612534Y54525391D01*
X37787436Y54490600D01*
X37965764Y54490600D01*
X38140666Y54525391D01*
X38140667Y54525392D01*
X38140669Y54525392D01*
X38140670Y54525392D01*
X38239644Y54566389D01*
X38305420Y54593634D01*
X38453695Y54692708D01*
X38579792Y54818805D01*
X38678866Y54967080D01*
X38723653Y55075205D01*
X38747108Y55131830D01*
X38747108Y55131831D01*
X38781900Y55306737D01*
X38781900Y56185064D01*
X38747109Y56359966D01*
X38747108Y56359967D01*
X38747108Y56359970D01*
X38747108Y56359971D01*
X38678867Y56524719D01*
X38639399Y56583787D01*
X38614208Y56657998D01*
X38629498Y56734863D01*
X38681171Y56793785D01*
X38755382Y56818976D01*
X38765284Y56819300D01*
X43987916Y56819300D01*
X44063616Y56799016D01*
X44119032Y56743600D01*
X44139316Y56667900D01*
X44119032Y56592200D01*
X44113801Y56583787D01*
X44074332Y56524719D01*
X44006091Y56359971D01*
X44006091Y56359970D01*
X43971300Y56185064D01*
X43971300Y55306737D01*
X44006091Y55131831D01*
X44006091Y55131830D01*
X44074333Y54967082D01*
X44074336Y54967076D01*
X44173403Y54818811D01*
X44173408Y54818805D01*
X44299504Y54692709D01*
X44299510Y54692704D01*
X44447775Y54593637D01*
X44447777Y54593636D01*
X44447780Y54593634D01*
X44511494Y54567243D01*
X44612530Y54525392D01*
X44612533Y54525392D01*
X44612534Y54525391D01*
X44787436Y54490600D01*
X44965764Y54490600D01*
X45140666Y54525391D01*
X45140667Y54525392D01*
X45140669Y54525392D01*
X45140670Y54525392D01*
X45239644Y54566389D01*
X45305420Y54593634D01*
X45453695Y54692708D01*
X45579792Y54818805D01*
X45678866Y54967080D01*
X45709816Y55041800D01*
X78073873Y55041800D01*
X78094705Y54870230D01*
X78094706Y54870228D01*
X78155993Y54708627D01*
X78155994Y54708625D01*
X78155996Y54708622D01*
X78254169Y54566392D01*
X78254171Y54566390D01*
X78254172Y54566389D01*
X78383539Y54451781D01*
X78536574Y54371462D01*
X78704384Y54330100D01*
X78704387Y54330100D01*
X78877213Y54330100D01*
X78877216Y54330100D01*
X79045026Y54371462D01*
X79198061Y54451781D01*
X79327428Y54566389D01*
X79425607Y54708627D01*
X79486894Y54870228D01*
X79507727Y55041800D01*
X79486894Y55213372D01*
X79425607Y55374973D01*
X79413192Y55392960D01*
X79327430Y55517209D01*
X79198061Y55631819D01*
X79045029Y55712137D01*
X79045027Y55712138D01*
X79045026Y55712138D01*
X78877216Y55753500D01*
X78704384Y55753500D01*
X78536574Y55712138D01*
X78536573Y55712138D01*
X78536570Y55712137D01*
X78383538Y55631819D01*
X78254169Y55517209D01*
X78155996Y55374979D01*
X78155993Y55374973D01*
X78094705Y55213371D01*
X78073873Y55041801D01*
X78073873Y55041800D01*
X45709816Y55041800D01*
X45723653Y55075205D01*
X45747108Y55131830D01*
X45747108Y55131831D01*
X45781900Y55306737D01*
X45781900Y56185064D01*
X45747109Y56359966D01*
X45747108Y56359967D01*
X45747108Y56359970D01*
X45747108Y56359971D01*
X45678867Y56524719D01*
X45639399Y56583787D01*
X45614208Y56657998D01*
X45629498Y56734863D01*
X45681171Y56793785D01*
X45755382Y56818976D01*
X45765284Y56819300D01*
X95245949Y56819300D01*
X95297834Y56819300D01*
X95303777Y56819184D01*
X95763132Y56801135D01*
X95774979Y56800204D01*
X96228576Y56746517D01*
X96240314Y56744658D01*
X96688292Y56655549D01*
X96699835Y56652778D01*
X97139466Y56528789D01*
X97150736Y56525127D01*
X97579273Y56367031D01*
X97590232Y56362492D01*
X97975102Y56185064D01*
X98005041Y56171262D01*
X98015631Y56165866D01*
X98414164Y55942678D01*
X98424258Y55936492D01*
X98804051Y55682722D01*
X98813660Y55675741D01*
X99172366Y55392960D01*
X99181405Y55385239D01*
X99516798Y55075205D01*
X99525204Y55066799D01*
X99835238Y54731406D01*
X99842959Y54722367D01*
X100125740Y54363661D01*
X100132724Y54354047D01*
X100386486Y53974266D01*
X100392681Y53964158D01*
X100424855Y53906708D01*
X100615864Y53565634D01*
X100621261Y53555042D01*
X100812486Y53140245D01*
X100817035Y53129262D01*
X100922300Y52843928D01*
X100975120Y52700755D01*
X100978794Y52689449D01*
X101102775Y52249844D01*
X101105550Y52238285D01*
X101194656Y51790317D01*
X101196516Y51778575D01*
X101250202Y51324982D01*
X101251134Y51313131D01*
X101269183Y50853778D01*
X101269300Y50847834D01*
X101269300Y6403767D01*
X101269183Y6397823D01*
X101251134Y5938470D01*
X101250202Y5926619D01*
X101196516Y5473026D01*
X101194656Y5461284D01*
X101105550Y5013316D01*
X101102775Y5001757D01*
X100978794Y4562152D01*
X100975120Y4550846D01*
X100817035Y4122339D01*
X100812486Y4111356D01*
X100621261Y3696559D01*
X100615864Y3685967D01*
X100392686Y3287451D01*
X100386479Y3277323D01*
X100352595Y3226611D01*
X100132727Y2897557D01*
X100125740Y2887940D01*
X99842959Y2529234D01*
X99835238Y2520195D01*
X99525204Y2184802D01*
X99516798Y2176396D01*
X99181405Y1866362D01*
X99172366Y1858641D01*
X98813660Y1575860D01*
X98804043Y1568873D01*
X98669177Y1478758D01*
X98424277Y1315121D01*
X98414149Y1308914D01*
X98015633Y1085736D01*
X98005041Y1080339D01*
X97590244Y889114D01*
X97579261Y884565D01*
X97150754Y726480D01*
X97139448Y722806D01*
X96699843Y598825D01*
X96688284Y596050D01*
X96240316Y506944D01*
X96228574Y505084D01*
X95774981Y451398D01*
X95763130Y450466D01*
X95303778Y432417D01*
X95297834Y432300D01*
X67136526Y432300D01*
X67060826Y452584D01*
X67005410Y508000D01*
X66985126Y583700D01*
X67005410Y659400D01*
X67060826Y714816D01*
X67078579Y723572D01*
X67202845Y775044D01*
X67418289Y907069D01*
X67610429Y1071171D01*
X67774531Y1263311D01*
X67906556Y1478755D01*
X68003252Y1712201D01*
X68062239Y1957899D01*
X68066092Y2006854D01*
X68082064Y2209796D01*
X68082064Y2209805D01*
X68062240Y2461693D01*
X68062239Y2461696D01*
X68062239Y2461701D01*
X68003252Y2707399D01*
X67970768Y2785822D01*
X67906557Y2940843D01*
X67906553Y2940851D01*
X67774533Y3156286D01*
X67774531Y3156289D01*
X67610429Y3348429D01*
X67418289Y3512531D01*
X67418288Y3512532D01*
X67418285Y3512534D01*
X67202850Y3644554D01*
X67202842Y3644558D01*
X66969404Y3741251D01*
X66833047Y3773988D01*
X66723701Y3800239D01*
X66723700Y3800240D01*
X66723692Y3800241D01*
X66471805Y3820064D01*
X66471795Y3820064D01*
X66219907Y3800241D01*
X65974195Y3741251D01*
X65740757Y3644558D01*
X65740749Y3644554D01*
X65525314Y3512534D01*
X65525311Y3512532D01*
X65333171Y3348429D01*
X65169068Y3156289D01*
X65169066Y3156286D01*
X65037046Y2940851D01*
X65037042Y2940843D01*
X64940349Y2707405D01*
X64881359Y2461693D01*
X64861536Y2209805D01*
X64861536Y2209796D01*
X64881359Y1957908D01*
X64940349Y1712196D01*
X65037042Y1478758D01*
X65037046Y1478750D01*
X65169066Y1263315D01*
X65169068Y1263312D01*
X65169069Y1263311D01*
X65333171Y1071171D01*
X65525311Y907069D01*
X65525314Y907067D01*
X65554610Y889114D01*
X65740755Y775044D01*
X65865013Y723575D01*
X65927187Y675867D01*
X65957179Y603462D01*
X65946950Y525762D01*
X65899241Y463587D01*
X65826836Y433595D01*
X65807074Y432300D01*
X59516526Y432300D01*
X59440826Y452584D01*
X59385410Y508000D01*
X59365126Y583700D01*
X59385410Y659400D01*
X59440826Y714816D01*
X59458579Y723572D01*
X59582845Y775044D01*
X59798289Y907069D01*
X59990429Y1071171D01*
X60154531Y1263311D01*
X60286556Y1478755D01*
X60383252Y1712201D01*
X60442239Y1957899D01*
X60446092Y2006854D01*
X60462064Y2209796D01*
X60462064Y2209805D01*
X60442240Y2461693D01*
X60442239Y2461696D01*
X60442239Y2461701D01*
X60383252Y2707399D01*
X60350768Y2785822D01*
X60286557Y2940843D01*
X60286553Y2940851D01*
X60154533Y3156286D01*
X60154531Y3156289D01*
X59990429Y3348429D01*
X59798289Y3512531D01*
X59798288Y3512532D01*
X59798285Y3512534D01*
X59582850Y3644554D01*
X59582842Y3644558D01*
X59349404Y3741251D01*
X59213047Y3773988D01*
X59103701Y3800239D01*
X59103700Y3800240D01*
X59103692Y3800241D01*
X58851805Y3820064D01*
X58851795Y3820064D01*
X58599907Y3800241D01*
X58354195Y3741251D01*
X58120757Y3644558D01*
X58120749Y3644554D01*
X57905314Y3512534D01*
X57905311Y3512532D01*
X57713171Y3348429D01*
X57549068Y3156289D01*
X57549066Y3156286D01*
X57417046Y2940851D01*
X57417042Y2940843D01*
X57320349Y2707405D01*
X57261359Y2461693D01*
X57241536Y2209805D01*
X57241536Y2209796D01*
X57261359Y1957908D01*
X57320349Y1712196D01*
X57417042Y1478758D01*
X57417046Y1478750D01*
X57549066Y1263315D01*
X57549068Y1263312D01*
X57549069Y1263311D01*
X57713171Y1071171D01*
X57905311Y907069D01*
X57905314Y907067D01*
X57934610Y889114D01*
X58120755Y775044D01*
X58245013Y723575D01*
X58307187Y675867D01*
X58337179Y603462D01*
X58326950Y525762D01*
X58279241Y463587D01*
X58206836Y433595D01*
X58187074Y432300D01*
X55739854Y432300D01*
X55664154Y452584D01*
X55608738Y508000D01*
X55588454Y583700D01*
X55608738Y659400D01*
X55654567Y708792D01*
X55745949Y771097D01*
X55745950Y771097D01*
X54908288Y1608759D01*
X54968690Y1633778D01*
X55075151Y1704912D01*
X55165688Y1795449D01*
X55236822Y1901910D01*
X55261841Y1962312D01*
X56098503Y1125650D01*
X56098504Y1125650D01*
X56152199Y1192980D01*
X56152204Y1192988D01*
X56287091Y1426619D01*
X56385651Y1677748D01*
X56385656Y1677763D01*
X56445684Y1940765D01*
X56465846Y2209800D01*
X56445684Y2478836D01*
X56385656Y2741838D01*
X56385651Y2741853D01*
X56287091Y2992982D01*
X56152203Y3226615D01*
X56152194Y3226628D01*
X56098504Y3293952D01*
X55261841Y2457290D01*
X55236822Y2517690D01*
X55165688Y2624151D01*
X55075151Y2714688D01*
X54968690Y2785822D01*
X54908287Y2810843D01*
X55745950Y3648504D01*
X55745949Y3648505D01*
X55563326Y3773016D01*
X55320260Y3890071D01*
X55062455Y3969592D01*
X55062452Y3969593D01*
X54795689Y4009800D01*
X54525911Y4009800D01*
X54259147Y3969593D01*
X54259144Y3969592D01*
X54001339Y3890071D01*
X53758279Y3773018D01*
X53575649Y3648504D01*
X54413311Y2810842D01*
X54352910Y2785822D01*
X54246449Y2714688D01*
X54155912Y2624151D01*
X54084778Y2517690D01*
X54059758Y2457289D01*
X53223095Y3293952D01*
X53169397Y3226615D01*
X53169394Y3226611D01*
X53034508Y2992982D01*
X52935948Y2741853D01*
X52935943Y2741838D01*
X52875915Y2478836D01*
X52855753Y2209800D01*
X52875915Y1940765D01*
X52935943Y1677763D01*
X52935948Y1677748D01*
X53034508Y1426619D01*
X53169396Y1192986D01*
X53169405Y1192973D01*
X53223094Y1125650D01*
X53223095Y1125650D01*
X54059757Y1962313D01*
X54084778Y1901910D01*
X54155912Y1795449D01*
X54246449Y1704912D01*
X54352910Y1633778D01*
X54413311Y1608759D01*
X53575649Y771097D01*
X53667033Y708792D01*
X53718153Y649390D01*
X53732723Y572386D01*
X53706838Y498413D01*
X53647436Y447293D01*
X53581746Y432300D01*
X48119854Y432300D01*
X48044154Y452584D01*
X47988738Y508000D01*
X47968454Y583700D01*
X47988738Y659400D01*
X48034567Y708792D01*
X48125949Y771097D01*
X48125950Y771097D01*
X47288288Y1608759D01*
X47348690Y1633778D01*
X47455151Y1704912D01*
X47545688Y1795449D01*
X47616822Y1901910D01*
X47641841Y1962312D01*
X48478503Y1125650D01*
X48478504Y1125650D01*
X48532199Y1192980D01*
X48532204Y1192988D01*
X48667091Y1426619D01*
X48765651Y1677748D01*
X48765656Y1677763D01*
X48825684Y1940765D01*
X48845846Y2209800D01*
X48825684Y2478836D01*
X48765656Y2741838D01*
X48765651Y2741853D01*
X48667091Y2992982D01*
X48532203Y3226615D01*
X48532194Y3226628D01*
X48478504Y3293952D01*
X47641841Y2457290D01*
X47616822Y2517690D01*
X47545688Y2624151D01*
X47455151Y2714688D01*
X47348690Y2785822D01*
X47288287Y2810843D01*
X48125950Y3648504D01*
X48125949Y3648505D01*
X47943326Y3773016D01*
X47700260Y3890071D01*
X47442455Y3969592D01*
X47442452Y3969593D01*
X47175689Y4009800D01*
X46905911Y4009800D01*
X46639147Y3969593D01*
X46639144Y3969592D01*
X46381339Y3890071D01*
X46138279Y3773018D01*
X45955649Y3648504D01*
X46793311Y2810842D01*
X46732910Y2785822D01*
X46626449Y2714688D01*
X46535912Y2624151D01*
X46464778Y2517690D01*
X46439758Y2457289D01*
X45603095Y3293952D01*
X45549397Y3226615D01*
X45549394Y3226611D01*
X45414508Y2992982D01*
X45315948Y2741853D01*
X45315943Y2741838D01*
X45255915Y2478836D01*
X45235753Y2209800D01*
X45255915Y1940765D01*
X45315943Y1677763D01*
X45315948Y1677748D01*
X45414508Y1426619D01*
X45549396Y1192986D01*
X45549405Y1192973D01*
X45603094Y1125650D01*
X45603095Y1125650D01*
X46439757Y1962313D01*
X46464778Y1901910D01*
X46535912Y1795449D01*
X46626449Y1704912D01*
X46732910Y1633778D01*
X46793311Y1608759D01*
X45955649Y771097D01*
X46047033Y708792D01*
X46098153Y649390D01*
X46112723Y572386D01*
X46086838Y498413D01*
X46027436Y447293D01*
X45961746Y432300D01*
X43514526Y432300D01*
X43438826Y452584D01*
X43383410Y508000D01*
X43363126Y583700D01*
X43383410Y659400D01*
X43438826Y714816D01*
X43456579Y723572D01*
X43580845Y775044D01*
X43796289Y907069D01*
X43988429Y1071171D01*
X44152531Y1263311D01*
X44284556Y1478755D01*
X44381252Y1712201D01*
X44440239Y1957899D01*
X44444092Y2006854D01*
X44460064Y2209796D01*
X44460064Y2209805D01*
X44440240Y2461693D01*
X44440239Y2461696D01*
X44440239Y2461701D01*
X44381252Y2707399D01*
X44348768Y2785822D01*
X44284557Y2940843D01*
X44284553Y2940851D01*
X44152533Y3156286D01*
X44152531Y3156289D01*
X43988429Y3348429D01*
X43796289Y3512531D01*
X43796288Y3512532D01*
X43796285Y3512534D01*
X43580850Y3644554D01*
X43580842Y3644558D01*
X43347404Y3741251D01*
X43211047Y3773988D01*
X43101701Y3800239D01*
X43101700Y3800240D01*
X43101692Y3800241D01*
X42849805Y3820064D01*
X42849795Y3820064D01*
X42597907Y3800241D01*
X42352195Y3741251D01*
X42118757Y3644558D01*
X42118749Y3644554D01*
X41903314Y3512534D01*
X41903311Y3512532D01*
X41711171Y3348429D01*
X41547068Y3156289D01*
X41547066Y3156286D01*
X41415046Y2940851D01*
X41415042Y2940843D01*
X41318349Y2707405D01*
X41259359Y2461693D01*
X41239536Y2209805D01*
X41239536Y2209796D01*
X41259359Y1957908D01*
X41318349Y1712196D01*
X41415042Y1478758D01*
X41415046Y1478750D01*
X41547066Y1263315D01*
X41547068Y1263312D01*
X41547069Y1263311D01*
X41711171Y1071171D01*
X41903311Y907069D01*
X41903314Y907067D01*
X41932610Y889114D01*
X42118755Y775044D01*
X42243013Y723575D01*
X42305187Y675867D01*
X42335179Y603462D01*
X42324950Y525762D01*
X42277241Y463587D01*
X42204836Y433595D01*
X42185074Y432300D01*
X35894526Y432300D01*
X35818826Y452584D01*
X35763410Y508000D01*
X35743126Y583700D01*
X35763410Y659400D01*
X35818826Y714816D01*
X35836579Y723572D01*
X35960845Y775044D01*
X36176289Y907069D01*
X36368429Y1071171D01*
X36532531Y1263311D01*
X36664556Y1478755D01*
X36761252Y1712201D01*
X36820239Y1957899D01*
X36824092Y2006854D01*
X36840064Y2209796D01*
X36840064Y2209805D01*
X36820240Y2461693D01*
X36820239Y2461696D01*
X36820239Y2461701D01*
X36761252Y2707399D01*
X36728768Y2785822D01*
X36664557Y2940843D01*
X36664553Y2940851D01*
X36532533Y3156286D01*
X36532531Y3156289D01*
X36368429Y3348429D01*
X36176289Y3512531D01*
X36176288Y3512532D01*
X36176285Y3512534D01*
X35960850Y3644554D01*
X35960842Y3644558D01*
X35727404Y3741251D01*
X35591047Y3773988D01*
X35481701Y3800239D01*
X35481700Y3800240D01*
X35481692Y3800241D01*
X35229805Y3820064D01*
X35229795Y3820064D01*
X34977907Y3800241D01*
X34732195Y3741251D01*
X34498757Y3644558D01*
X34498749Y3644554D01*
X34283314Y3512534D01*
X34283311Y3512532D01*
X34091171Y3348429D01*
X33927068Y3156289D01*
X33927066Y3156286D01*
X33795046Y2940851D01*
X33795042Y2940843D01*
X33698349Y2707405D01*
X33639359Y2461693D01*
X33619536Y2209805D01*
X33619536Y2209796D01*
X33639359Y1957908D01*
X33698349Y1712196D01*
X33795042Y1478758D01*
X33795046Y1478750D01*
X33927066Y1263315D01*
X33927068Y1263312D01*
X33927069Y1263311D01*
X34091171Y1071171D01*
X34283311Y907069D01*
X34283314Y907067D01*
X34312610Y889114D01*
X34498755Y775044D01*
X34623013Y723575D01*
X34685187Y675867D01*
X34715179Y603462D01*
X34704950Y525762D01*
X34657241Y463587D01*
X34584836Y433595D01*
X34565074Y432300D01*
X6403766Y432300D01*
X6397822Y432417D01*
X5938469Y450466D01*
X5926618Y451398D01*
X5473025Y505084D01*
X5461283Y506944D01*
X5013315Y596050D01*
X5001756Y598825D01*
X4562151Y722806D01*
X4550845Y726480D01*
X4122338Y884565D01*
X4111355Y889114D01*
X3696558Y1080339D01*
X3685966Y1085736D01*
X3368879Y1263312D01*
X3287442Y1308919D01*
X3277334Y1315114D01*
X2897553Y1568876D01*
X2887939Y1575860D01*
X2529233Y1858641D01*
X2520194Y1866362D01*
X2184801Y2176396D01*
X2176395Y2184802D01*
X1866361Y2520195D01*
X1858640Y2529234D01*
X1575859Y2887940D01*
X1568878Y2897549D01*
X1315108Y3277342D01*
X1308922Y3287436D01*
X1085734Y3685969D01*
X1080338Y3696559D01*
X1023401Y3820064D01*
X889108Y4111368D01*
X884569Y4122327D01*
X726473Y4550864D01*
X722811Y4562134D01*
X598822Y5001765D01*
X596962Y5009512D01*
X3280300Y5009512D01*
X3311962Y4769011D01*
X3341884Y4657340D01*
X3374746Y4534701D01*
X3374749Y4534692D01*
X3467570Y4310600D01*
X3467577Y4310586D01*
X3588863Y4100512D01*
X3736527Y3908072D01*
X3736536Y3908061D01*
X3908060Y3736537D01*
X3908071Y3736528D01*
X3973964Y3685967D01*
X4100511Y3588864D01*
X4310588Y3467576D01*
X4310593Y3467574D01*
X4310599Y3467571D01*
X4449503Y3410036D01*
X4534700Y3374746D01*
X4769011Y3311962D01*
X4977849Y3284469D01*
X5009511Y3280300D01*
X5009512Y3280300D01*
X5252089Y3280300D01*
X5280067Y3283984D01*
X5492589Y3311962D01*
X5726900Y3374746D01*
X5951012Y3467576D01*
X6161089Y3588864D01*
X6353538Y3736535D01*
X6525065Y3908062D01*
X6672736Y4100511D01*
X6794024Y4310588D01*
X6886854Y4534700D01*
X6949638Y4769011D01*
X6981300Y5009512D01*
X94720300Y5009512D01*
X94751962Y4769011D01*
X94781884Y4657340D01*
X94814746Y4534701D01*
X94814749Y4534692D01*
X94907570Y4310600D01*
X94907577Y4310586D01*
X95028863Y4100512D01*
X95176527Y3908072D01*
X95176536Y3908061D01*
X95348060Y3736537D01*
X95348071Y3736528D01*
X95413964Y3685967D01*
X95540511Y3588864D01*
X95750588Y3467576D01*
X95750593Y3467574D01*
X95750599Y3467571D01*
X95889503Y3410036D01*
X95974700Y3374746D01*
X96209011Y3311962D01*
X96417849Y3284469D01*
X96449511Y3280300D01*
X96449512Y3280300D01*
X96692089Y3280300D01*
X96720067Y3283984D01*
X96932589Y3311962D01*
X97166900Y3374746D01*
X97391012Y3467576D01*
X97601089Y3588864D01*
X97793538Y3736535D01*
X97965065Y3908062D01*
X98112736Y4100511D01*
X98234024Y4310588D01*
X98326854Y4534700D01*
X98389638Y4769011D01*
X98421300Y5009512D01*
X98421300Y5252088D01*
X98389638Y5492589D01*
X98326854Y5726900D01*
X98234024Y5951012D01*
X98112736Y6161089D01*
X97965065Y6353538D01*
X97793538Y6525065D01*
X97601089Y6672736D01*
X97601090Y6672736D01*
X97601088Y6672737D01*
X97391014Y6794023D01*
X97391000Y6794030D01*
X97166908Y6886851D01*
X97166904Y6886853D01*
X97166900Y6886854D01*
X96932589Y6949638D01*
X96692089Y6981300D01*
X96692088Y6981300D01*
X96449512Y6981300D01*
X96449511Y6981300D01*
X96209010Y6949638D01*
X95974700Y6886854D01*
X95974691Y6886851D01*
X95750599Y6794030D01*
X95750585Y6794023D01*
X95540511Y6672737D01*
X95348071Y6525073D01*
X95348060Y6525064D01*
X95176536Y6353540D01*
X95176527Y6353529D01*
X95028863Y6161089D01*
X94907577Y5951015D01*
X94907570Y5951001D01*
X94814749Y5726909D01*
X94814746Y5726900D01*
X94751962Y5492590D01*
X94749387Y5473026D01*
X94720300Y5252088D01*
X94720300Y5009512D01*
X6981300Y5009512D01*
X6981300Y5252088D01*
X6949638Y5492589D01*
X6886854Y5726900D01*
X6794024Y5951012D01*
X6672736Y6161089D01*
X6525065Y6353538D01*
X6353538Y6525065D01*
X6161089Y6672736D01*
X6161090Y6672736D01*
X6161088Y6672737D01*
X5951014Y6794023D01*
X5951000Y6794030D01*
X5726908Y6886851D01*
X5726904Y6886853D01*
X5726900Y6886854D01*
X5492589Y6949638D01*
X5252089Y6981300D01*
X5252088Y6981300D01*
X5009512Y6981300D01*
X5009511Y6981300D01*
X4769010Y6949638D01*
X4534700Y6886854D01*
X4534691Y6886851D01*
X4310599Y6794030D01*
X4310585Y6794023D01*
X4100511Y6672737D01*
X3908071Y6525073D01*
X3908060Y6525064D01*
X3736536Y6353540D01*
X3736527Y6353529D01*
X3588863Y6161089D01*
X3467577Y5951015D01*
X3467570Y5951001D01*
X3374749Y5726909D01*
X3374746Y5726900D01*
X3311962Y5492590D01*
X3309387Y5473026D01*
X3280300Y5252088D01*
X3280300Y5009512D01*
X596962Y5009512D01*
X596049Y5013316D01*
X569167Y5148460D01*
X506942Y5461286D01*
X505083Y5473026D01*
X502767Y5492590D01*
X451396Y5926621D01*
X450465Y5938470D01*
X432417Y6397823D01*
X432300Y6403767D01*
X432300Y9067800D01*
X86709873Y9067800D01*
X86730705Y8896230D01*
X86730706Y8896228D01*
X86791993Y8734627D01*
X86791994Y8734625D01*
X86791996Y8734622D01*
X86890169Y8592392D01*
X86890171Y8592390D01*
X86890172Y8592389D01*
X87019539Y8477781D01*
X87172574Y8397462D01*
X87340384Y8356100D01*
X87340387Y8356100D01*
X87513213Y8356100D01*
X87513216Y8356100D01*
X87681026Y8397462D01*
X87834061Y8477781D01*
X87963428Y8592389D01*
X88061607Y8734627D01*
X88122894Y8896228D01*
X88143727Y9067800D01*
X88122894Y9239372D01*
X88061607Y9400973D01*
X88061603Y9400979D01*
X87963430Y9543209D01*
X87834061Y9657819D01*
X87681029Y9738137D01*
X87681027Y9738138D01*
X87681026Y9738138D01*
X87513216Y9779500D01*
X87340384Y9779500D01*
X87172574Y9738138D01*
X87172573Y9738138D01*
X87172570Y9738137D01*
X87019538Y9657819D01*
X86890169Y9543209D01*
X86791996Y9400979D01*
X86791993Y9400973D01*
X86730705Y9239371D01*
X86709873Y9067801D01*
X86709873Y9067800D01*
X432300Y9067800D01*
X432300Y12530800D01*
X7358197Y12530800D01*
X7377384Y12250286D01*
X7377387Y12250270D01*
X7434589Y11974995D01*
X7528749Y11710055D01*
X7528750Y11710053D01*
X7658108Y11460404D01*
X7658111Y11460400D01*
X7658112Y11460398D01*
X7820247Y11230704D01*
X7820259Y11230689D01*
X7980545Y11059065D01*
X8012170Y11025203D01*
X8230279Y10847758D01*
X8470519Y10701665D01*
X8728414Y10589645D01*
X8999160Y10513786D01*
X9277714Y10475500D01*
X9277715Y10475500D01*
X9558885Y10475500D01*
X9558886Y10475500D01*
X9837440Y10513786D01*
X10108186Y10589645D01*
X10366081Y10701665D01*
X10606321Y10847758D01*
X10824430Y11025203D01*
X11016345Y11230694D01*
X11178492Y11460404D01*
X11307850Y11710053D01*
X11402009Y11974991D01*
X11459215Y12250283D01*
X11478403Y12530800D01*
X90235697Y12530800D01*
X90254884Y12250286D01*
X90254887Y12250270D01*
X90312089Y11974995D01*
X90406249Y11710055D01*
X90406250Y11710053D01*
X90535608Y11460404D01*
X90535611Y11460400D01*
X90535612Y11460398D01*
X90697747Y11230704D01*
X90697759Y11230689D01*
X90858045Y11059065D01*
X90889670Y11025203D01*
X91107779Y10847758D01*
X91348019Y10701665D01*
X91605914Y10589645D01*
X91876660Y10513786D01*
X92155214Y10475500D01*
X92155215Y10475500D01*
X92436385Y10475500D01*
X92436386Y10475500D01*
X92714940Y10513786D01*
X92985686Y10589645D01*
X93243581Y10701665D01*
X93483821Y10847758D01*
X93701930Y11025203D01*
X93893845Y11230694D01*
X94055992Y11460404D01*
X94185350Y11710053D01*
X94279509Y11974991D01*
X94336715Y12250283D01*
X94355903Y12530800D01*
X94336715Y12811317D01*
X94279509Y13086609D01*
X94185350Y13351547D01*
X94055992Y13601196D01*
X94042468Y13620355D01*
X93893852Y13830897D01*
X93893840Y13830912D01*
X93701927Y14036400D01*
X93483821Y14213842D01*
X93483818Y14213844D01*
X93243581Y14359935D01*
X92985688Y14471954D01*
X92985686Y14471955D01*
X92714940Y14547814D01*
X92714937Y14547815D01*
X92714935Y14547815D01*
X92505308Y14576627D01*
X92436386Y14586100D01*
X92155214Y14586100D01*
X92090066Y14577146D01*
X91876664Y14547815D01*
X91876660Y14547815D01*
X91876660Y14547814D01*
X91605914Y14471955D01*
X91605912Y14471955D01*
X91605911Y14471954D01*
X91348018Y14359935D01*
X91107781Y14213844D01*
X91107778Y14213842D01*
X90889672Y14036400D01*
X90697759Y13830912D01*
X90697747Y13830897D01*
X90535612Y13601203D01*
X90406249Y13351546D01*
X90312089Y13086606D01*
X90254887Y12811331D01*
X90254884Y12811315D01*
X90235697Y12530801D01*
X90235697Y12530800D01*
X11478403Y12530800D01*
X11459215Y12811317D01*
X11402009Y13086609D01*
X11307850Y13351547D01*
X11178492Y13601196D01*
X11164968Y13620355D01*
X11016352Y13830897D01*
X11016340Y13830912D01*
X10824427Y14036400D01*
X10606321Y14213842D01*
X10606318Y14213844D01*
X10366081Y14359935D01*
X10108188Y14471954D01*
X10108186Y14471955D01*
X9837440Y14547814D01*
X9837437Y14547815D01*
X9837435Y14547815D01*
X9627808Y14576627D01*
X9558886Y14586100D01*
X9277714Y14586100D01*
X9212566Y14577146D01*
X8999164Y14547815D01*
X8999160Y14547815D01*
X8999160Y14547814D01*
X8728414Y14471955D01*
X8728412Y14471955D01*
X8728411Y14471954D01*
X8470518Y14359935D01*
X8230281Y14213844D01*
X8230278Y14213842D01*
X8012172Y14036400D01*
X7820259Y13830912D01*
X7820247Y13830897D01*
X7658112Y13601203D01*
X7528749Y13351546D01*
X7434589Y13086606D01*
X7377387Y12811331D01*
X7377384Y12811315D01*
X7358197Y12530801D01*
X7358197Y12530800D01*
X432300Y12530800D01*
X432300Y15600800D01*
X10861479Y15600800D01*
X10880724Y15380821D01*
X10937878Y15167524D01*
X10937881Y15167514D01*
X11031196Y14967399D01*
X11031200Y14967391D01*
X11076558Y14902613D01*
X11677996Y15504052D01*
X11699649Y15423247D01*
X11760209Y15318354D01*
X11845854Y15232709D01*
X11950747Y15172149D01*
X12031550Y15150498D01*
X11430110Y14549059D01*
X11494886Y14503703D01*
X11494896Y14503697D01*
X11695013Y14410382D01*
X11695023Y14410379D01*
X11908322Y14353225D01*
X11908318Y14353225D01*
X12128300Y14333980D01*
X12348279Y14353225D01*
X12561576Y14410379D01*
X12561586Y14410382D01*
X12761709Y14503701D01*
X12761717Y14503706D01*
X12826487Y14549059D01*
X12826488Y14549059D01*
X12225049Y15150498D01*
X12305853Y15172149D01*
X12410746Y15232709D01*
X12496391Y15318354D01*
X12556951Y15423247D01*
X12578602Y15504051D01*
X13180041Y14902612D01*
X13180041Y14902613D01*
X13185073Y14909800D01*
X29026473Y14909800D01*
X29047305Y14738230D01*
X29047306Y14738228D01*
X29108593Y14576627D01*
X29108594Y14576625D01*
X29108596Y14576622D01*
X29206769Y14434392D01*
X29206771Y14434390D01*
X29206772Y14434389D01*
X29336139Y14319781D01*
X29489174Y14239462D01*
X29656984Y14198100D01*
X29656987Y14198100D01*
X29829813Y14198100D01*
X29829816Y14198100D01*
X29997626Y14239462D01*
X30150661Y14319781D01*
X30280028Y14434389D01*
X30378207Y14576627D01*
X30439494Y14738228D01*
X30446171Y14793220D01*
X88518500Y14793220D01*
X88521461Y14767693D01*
X88521462Y14767691D01*
X88567566Y14663275D01*
X88648275Y14582566D01*
X88752691Y14536462D01*
X88778221Y14533500D01*
X90393378Y14533501D01*
X90393380Y14533501D01*
X90406143Y14534982D01*
X90418909Y14536462D01*
X90523325Y14582566D01*
X90604034Y14663275D01*
X90650138Y14767691D01*
X90653100Y14793221D01*
X90653099Y16408378D01*
X90650138Y16433909D01*
X90604034Y16538325D01*
X90523325Y16619034D01*
X90418910Y16665138D01*
X90418904Y16665139D01*
X90393381Y16668100D01*
X88778219Y16668100D01*
X88752692Y16665139D01*
X88700483Y16642086D01*
X88648275Y16619034D01*
X88648274Y16619033D01*
X88648273Y16619033D01*
X88567566Y16538326D01*
X88521462Y16433911D01*
X88521461Y16433905D01*
X88518500Y16408382D01*
X88518500Y14793220D01*
X30446171Y14793220D01*
X30460327Y14909800D01*
X30458449Y14925263D01*
X30439494Y15081371D01*
X30439339Y15081781D01*
X30378207Y15242973D01*
X30375257Y15247247D01*
X30280030Y15385209D01*
X30150661Y15499819D01*
X29997629Y15580137D01*
X29997627Y15580138D01*
X29997626Y15580138D01*
X29829816Y15621500D01*
X29656984Y15621500D01*
X29489174Y15580138D01*
X29489173Y15580138D01*
X29489170Y15580137D01*
X29336138Y15499819D01*
X29206769Y15385209D01*
X29108596Y15242979D01*
X29108593Y15242973D01*
X29047305Y15081371D01*
X29026473Y14909801D01*
X29026473Y14909800D01*
X13185073Y14909800D01*
X13225394Y14967383D01*
X13225399Y14967391D01*
X13318718Y15167514D01*
X13318721Y15167524D01*
X13375875Y15380821D01*
X13395120Y15600800D01*
X13375875Y15820780D01*
X13318721Y16034077D01*
X13318718Y16034087D01*
X13250771Y16179800D01*
X53105673Y16179800D01*
X53126505Y16008230D01*
X53146938Y15954354D01*
X53187793Y15846627D01*
X53187794Y15846625D01*
X53187796Y15846622D01*
X53285969Y15704392D01*
X53285971Y15704390D01*
X53285972Y15704389D01*
X53415339Y15589781D01*
X53568374Y15509462D01*
X53736184Y15468100D01*
X53736187Y15468100D01*
X53909013Y15468100D01*
X53909016Y15468100D01*
X54076826Y15509462D01*
X54229861Y15589781D01*
X54322442Y15671800D01*
X80105873Y15671800D01*
X80126705Y15500230D01*
X80150548Y15437360D01*
X80187993Y15338627D01*
X80187994Y15338625D01*
X80187996Y15338622D01*
X80286169Y15196392D01*
X80286171Y15196390D01*
X80286172Y15196389D01*
X80415539Y15081781D01*
X80568574Y15001462D01*
X80736384Y14960100D01*
X80736387Y14960100D01*
X80909213Y14960100D01*
X80909216Y14960100D01*
X81077026Y15001462D01*
X81230061Y15081781D01*
X81359428Y15196389D01*
X81457607Y15338627D01*
X81518894Y15500228D01*
X81530474Y15595600D01*
X81883873Y15595600D01*
X81904705Y15424030D01*
X81904706Y15424028D01*
X81965993Y15262427D01*
X81965994Y15262425D01*
X81965996Y15262422D01*
X82064169Y15120192D01*
X82064171Y15120190D01*
X82064172Y15120189D01*
X82193539Y15005581D01*
X82346574Y14925262D01*
X82514384Y14883900D01*
X82514387Y14883900D01*
X82687213Y14883900D01*
X82687216Y14883900D01*
X82855026Y14925262D01*
X83008061Y15005581D01*
X83137428Y15120189D01*
X83235607Y15262427D01*
X83296894Y15424028D01*
X83317727Y15595600D01*
X83317095Y15600801D01*
X83296894Y15767171D01*
X83296894Y15767172D01*
X83235607Y15928773D01*
X83207916Y15968891D01*
X83137430Y16071009D01*
X83008061Y16185619D01*
X82855029Y16265937D01*
X82855027Y16265938D01*
X82855026Y16265938D01*
X82687216Y16307300D01*
X82514384Y16307300D01*
X82346574Y16265938D01*
X82346573Y16265938D01*
X82346570Y16265937D01*
X82193538Y16185619D01*
X82064169Y16071009D01*
X81965996Y15928779D01*
X81965993Y15928773D01*
X81904705Y15767171D01*
X81883873Y15595601D01*
X81883873Y15595600D01*
X81530474Y15595600D01*
X81539727Y15671800D01*
X81518894Y15843372D01*
X81457607Y16004973D01*
X81412025Y16071011D01*
X81359430Y16147209D01*
X81230061Y16261819D01*
X81077029Y16342137D01*
X81077027Y16342138D01*
X81077026Y16342138D01*
X80909216Y16383500D01*
X80736384Y16383500D01*
X80568574Y16342138D01*
X80568573Y16342138D01*
X80568570Y16342137D01*
X80415538Y16261819D01*
X80286169Y16147209D01*
X80187996Y16004979D01*
X80187993Y16004973D01*
X80126705Y15843371D01*
X80105873Y15671801D01*
X80105873Y15671800D01*
X54322442Y15671800D01*
X54359228Y15704389D01*
X54457407Y15846627D01*
X54518694Y16008228D01*
X54539527Y16179800D01*
X54538820Y16185619D01*
X54518694Y16351371D01*
X54506509Y16383500D01*
X54457407Y16512973D01*
X54384199Y16619034D01*
X54359230Y16655209D01*
X54348022Y16665138D01*
X54229861Y16769819D01*
X54189081Y16791222D01*
X54076829Y16850137D01*
X54076827Y16850138D01*
X54076826Y16850138D01*
X53909016Y16891500D01*
X53736184Y16891500D01*
X53568374Y16850138D01*
X53568373Y16850138D01*
X53568370Y16850137D01*
X53415338Y16769819D01*
X53285969Y16655209D01*
X53187796Y16512979D01*
X53187793Y16512973D01*
X53126505Y16351371D01*
X53105673Y16179801D01*
X53105673Y16179800D01*
X13250771Y16179800D01*
X13225401Y16234207D01*
X13225398Y16234212D01*
X13180041Y16298989D01*
X13180040Y16298989D01*
X12578602Y15697551D01*
X12556951Y15778353D01*
X12496391Y15883246D01*
X12410746Y15968891D01*
X12305853Y16029451D01*
X12225048Y16051104D01*
X12826488Y16652542D01*
X12761709Y16697900D01*
X12761701Y16697904D01*
X12561586Y16791219D01*
X12561579Y16791222D01*
X12503605Y16806756D01*
X12435735Y16845942D01*
X12396550Y16913814D01*
X12396551Y16992184D01*
X12435737Y17060054D01*
X12498843Y17097878D01*
X12538714Y17109972D01*
X12724129Y17209079D01*
X12886647Y17342453D01*
X13020021Y17504971D01*
X13119128Y17690386D01*
X13180157Y17891573D01*
X13200764Y18100800D01*
X13180157Y18310027D01*
X13119128Y18511214D01*
X13020021Y18696629D01*
X13020020Y18696631D01*
X12886651Y18859143D01*
X12886647Y18859147D01*
X12886646Y18859148D01*
X12734795Y18983768D01*
X12689147Y19047468D01*
X12681465Y19125461D01*
X12713808Y19196846D01*
X12734791Y19217830D01*
X12886647Y19342453D01*
X13020021Y19504971D01*
X13119128Y19690386D01*
X13180157Y19891573D01*
X13200764Y20100800D01*
X13180157Y20310027D01*
X13119128Y20511214D01*
X13020021Y20696629D01*
X13020020Y20696631D01*
X12886651Y20859143D01*
X12886642Y20859152D01*
X12724130Y20992521D01*
X12724128Y20992522D01*
X12643392Y21035676D01*
X12538714Y21091628D01*
X12538711Y21091629D01*
X12337525Y21152658D01*
X12128300Y21173264D01*
X11919074Y21152658D01*
X11919073Y21152658D01*
X11717888Y21091629D01*
X11532471Y20992522D01*
X11532469Y20992521D01*
X11369957Y20859152D01*
X11369948Y20859143D01*
X11236579Y20696631D01*
X11236578Y20696629D01*
X11137471Y20511212D01*
X11076442Y20310027D01*
X11076442Y20310026D01*
X11055836Y20100800D01*
X11076442Y19891575D01*
X11076442Y19891574D01*
X11137471Y19690389D01*
X11137472Y19690386D01*
X11193424Y19585708D01*
X11236578Y19504972D01*
X11236579Y19504970D01*
X11369948Y19342458D01*
X11369953Y19342453D01*
X11521803Y19217834D01*
X11567452Y19154131D01*
X11575134Y19076138D01*
X11542790Y19004753D01*
X11521803Y18983766D01*
X11369953Y18859148D01*
X11369948Y18859143D01*
X11236579Y18696631D01*
X11236578Y18696629D01*
X11137471Y18511212D01*
X11076442Y18310027D01*
X11076442Y18310026D01*
X11055836Y18100800D01*
X11076442Y17891575D01*
X11076442Y17891574D01*
X11137471Y17690389D01*
X11137472Y17690386D01*
X11193424Y17585708D01*
X11236578Y17504972D01*
X11236579Y17504970D01*
X11369948Y17342458D01*
X11369957Y17342449D01*
X11532469Y17209080D01*
X11532471Y17209079D01*
X11717886Y17109972D01*
X11717888Y17109972D01*
X11717889Y17109971D01*
X11717892Y17109970D01*
X11757754Y17097878D01*
X11824307Y17056494D01*
X11861252Y16987378D01*
X11858688Y16909050D01*
X11817304Y16842497D01*
X11752995Y16806756D01*
X11695018Y16791221D01*
X11695013Y16791219D01*
X11494894Y16697902D01*
X11494888Y16697899D01*
X11430111Y16652543D01*
X11430111Y16652542D01*
X12031550Y16051103D01*
X11950747Y16029451D01*
X11845854Y15968891D01*
X11760209Y15883246D01*
X11699649Y15778353D01*
X11677997Y15697550D01*
X11076558Y16298989D01*
X11076557Y16298989D01*
X11031201Y16234212D01*
X11031198Y16234206D01*
X10937881Y16034087D01*
X10937878Y16034077D01*
X10880724Y15820780D01*
X10861479Y15600800D01*
X432300Y15600800D01*
X432300Y21793220D01*
X11061000Y21793220D01*
X11063961Y21767693D01*
X11063962Y21767691D01*
X11110066Y21663275D01*
X11190775Y21582566D01*
X11295191Y21536462D01*
X11320721Y21533500D01*
X12935878Y21533501D01*
X12935880Y21533501D01*
X12948643Y21534982D01*
X12961409Y21536462D01*
X13065825Y21582566D01*
X13146534Y21663275D01*
X13192638Y21767691D01*
X13195600Y21793221D01*
X13195599Y22600800D01*
X88318979Y22600800D01*
X88338224Y22380821D01*
X88395378Y22167524D01*
X88395381Y22167514D01*
X88488696Y21967399D01*
X88488700Y21967391D01*
X88534058Y21902613D01*
X89135496Y22504052D01*
X89157149Y22423247D01*
X89217709Y22318354D01*
X89303354Y22232709D01*
X89408247Y22172149D01*
X89489050Y22150498D01*
X88887610Y21549059D01*
X88952386Y21503703D01*
X88952396Y21503697D01*
X89152513Y21410382D01*
X89152525Y21410378D01*
X89210492Y21394845D01*
X89278363Y21355660D01*
X89317548Y21287789D01*
X89317548Y21209419D01*
X89278363Y21141548D01*
X89215257Y21103724D01*
X89175394Y21091632D01*
X89175389Y21091630D01*
X88989971Y20992522D01*
X88989969Y20992521D01*
X88827457Y20859152D01*
X88827448Y20859143D01*
X88694079Y20696631D01*
X88694078Y20696629D01*
X88594971Y20511212D01*
X88533942Y20310027D01*
X88533942Y20310026D01*
X88513336Y20100800D01*
X88533942Y19891575D01*
X88533942Y19891574D01*
X88594971Y19690389D01*
X88594972Y19690386D01*
X88650924Y19585708D01*
X88694078Y19504972D01*
X88694079Y19504970D01*
X88827448Y19342458D01*
X88827453Y19342453D01*
X88979303Y19217834D01*
X89024952Y19154131D01*
X89032634Y19076138D01*
X89000290Y19004753D01*
X88979303Y18983766D01*
X88827453Y18859148D01*
X88827448Y18859143D01*
X88694079Y18696631D01*
X88694078Y18696629D01*
X88594971Y18511212D01*
X88533942Y18310027D01*
X88533942Y18310026D01*
X88513336Y18100800D01*
X88533942Y17891575D01*
X88533942Y17891574D01*
X88594971Y17690389D01*
X88594972Y17690386D01*
X88650924Y17585708D01*
X88694078Y17504972D01*
X88694079Y17504970D01*
X88827448Y17342458D01*
X88827457Y17342449D01*
X88989969Y17209080D01*
X88989971Y17209079D01*
X89175386Y17109972D01*
X89376573Y17048943D01*
X89585800Y17028336D01*
X89795027Y17048943D01*
X89996214Y17109972D01*
X90181629Y17209079D01*
X90344147Y17342453D01*
X90477521Y17504971D01*
X90576628Y17690386D01*
X90637657Y17891573D01*
X90658264Y18100800D01*
X90637657Y18310027D01*
X90576628Y18511214D01*
X90477521Y18696629D01*
X90477520Y18696631D01*
X90344151Y18859143D01*
X90344147Y18859147D01*
X90344146Y18859148D01*
X90192295Y18983768D01*
X90146647Y19047468D01*
X90138965Y19125461D01*
X90171308Y19196846D01*
X90192291Y19217830D01*
X90344147Y19342453D01*
X90477521Y19504971D01*
X90576628Y19690386D01*
X90637657Y19891573D01*
X90658264Y20100800D01*
X90637657Y20310027D01*
X90576628Y20511214D01*
X90477521Y20696629D01*
X90477520Y20696631D01*
X90344151Y20859143D01*
X90344142Y20859152D01*
X90181630Y20992521D01*
X90181628Y20992522D01*
X89996211Y21091630D01*
X89956343Y21103723D01*
X89889790Y21145108D01*
X89852847Y21214225D01*
X89855411Y21292553D01*
X89896796Y21359106D01*
X89961107Y21394845D01*
X90019074Y21410378D01*
X90019086Y21410382D01*
X90219209Y21503701D01*
X90219217Y21503706D01*
X90283987Y21549059D01*
X90283988Y21549059D01*
X89682549Y22150498D01*
X89763353Y22172149D01*
X89868246Y22232709D01*
X89953891Y22318354D01*
X90014451Y22423247D01*
X90036102Y22504051D01*
X90637541Y21902612D01*
X90637541Y21902613D01*
X90682894Y21967383D01*
X90682899Y21967391D01*
X90776218Y22167514D01*
X90776221Y22167524D01*
X90833375Y22380821D01*
X90852620Y22600800D01*
X90833375Y22820780D01*
X90776221Y23034077D01*
X90776218Y23034087D01*
X90682901Y23234207D01*
X90682898Y23234212D01*
X90637541Y23298989D01*
X90637540Y23298989D01*
X90036102Y22697551D01*
X90014451Y22778353D01*
X89953891Y22883246D01*
X89868246Y22968891D01*
X89763353Y23029451D01*
X89682548Y23051104D01*
X90283988Y23652542D01*
X90219209Y23697900D01*
X90219201Y23697904D01*
X90019086Y23791219D01*
X90019076Y23791222D01*
X89805777Y23848376D01*
X89805781Y23848376D01*
X89585800Y23867621D01*
X89365820Y23848376D01*
X89152523Y23791222D01*
X89152513Y23791219D01*
X88952394Y23697902D01*
X88952388Y23697899D01*
X88887611Y23652543D01*
X88887611Y23652542D01*
X89489050Y23051103D01*
X89408247Y23029451D01*
X89303354Y22968891D01*
X89217709Y22883246D01*
X89157149Y22778353D01*
X89135497Y22697550D01*
X88534058Y23298989D01*
X88534057Y23298989D01*
X88488701Y23234212D01*
X88488698Y23234206D01*
X88395381Y23034087D01*
X88395378Y23034077D01*
X88338224Y22820780D01*
X88318979Y22600800D01*
X13195599Y22600800D01*
X13195599Y23408378D01*
X13192638Y23433909D01*
X13146534Y23538325D01*
X13065825Y23619034D01*
X12961410Y23665138D01*
X12961404Y23665139D01*
X12935881Y23668100D01*
X11320719Y23668100D01*
X11295192Y23665139D01*
X11242983Y23642086D01*
X11190775Y23619034D01*
X11190774Y23619033D01*
X11190773Y23619033D01*
X11110066Y23538326D01*
X11063962Y23433911D01*
X11063961Y23433905D01*
X11061000Y23408382D01*
X11061000Y21793220D01*
X432300Y21793220D01*
X432300Y25670800D01*
X7358197Y25670800D01*
X7377384Y25390286D01*
X7377387Y25390270D01*
X7434589Y25114995D01*
X7528749Y24850055D01*
X7528750Y24850053D01*
X7658108Y24600404D01*
X7658111Y24600400D01*
X7658112Y24600398D01*
X7820247Y24370704D01*
X7820259Y24370689D01*
X7966398Y24214213D01*
X7997603Y24180800D01*
X8012172Y24165201D01*
X8157576Y24046907D01*
X8230279Y23987758D01*
X8470519Y23841665D01*
X8728414Y23729645D01*
X8999160Y23653786D01*
X9277714Y23615500D01*
X9277715Y23615500D01*
X9558885Y23615500D01*
X9558886Y23615500D01*
X9837440Y23653786D01*
X10108186Y23729645D01*
X10211222Y23774400D01*
X57118873Y23774400D01*
X57139705Y23602830D01*
X57139706Y23602828D01*
X57200993Y23441227D01*
X57200994Y23441225D01*
X57200996Y23441222D01*
X57299169Y23298992D01*
X57299171Y23298990D01*
X57299172Y23298989D01*
X57428539Y23184381D01*
X57581574Y23104062D01*
X57749384Y23062700D01*
X57749387Y23062700D01*
X57922213Y23062700D01*
X57922216Y23062700D01*
X58090026Y23104062D01*
X58243061Y23184381D01*
X58372428Y23298989D01*
X58396999Y23334588D01*
X58456695Y23385365D01*
X58533781Y23399492D01*
X58607604Y23373184D01*
X58646199Y23334589D01*
X58670772Y23298989D01*
X58800139Y23184381D01*
X58953174Y23104062D01*
X59120984Y23062700D01*
X59120987Y23062700D01*
X59293813Y23062700D01*
X59293816Y23062700D01*
X59461626Y23104062D01*
X59614661Y23184381D01*
X59744028Y23298989D01*
X59842207Y23441227D01*
X59903494Y23602828D01*
X59924327Y23774400D01*
X59903494Y23945972D01*
X59842207Y24107573D01*
X59802430Y24165201D01*
X59791663Y24180800D01*
X72231873Y24180800D01*
X72252705Y24009230D01*
X72252706Y24009228D01*
X72313993Y23847627D01*
X72313994Y23847625D01*
X72313996Y23847622D01*
X72412169Y23705392D01*
X72412171Y23705390D01*
X72412172Y23705389D01*
X72541539Y23590781D01*
X72694574Y23510462D01*
X72862384Y23469100D01*
X72862387Y23469100D01*
X73035213Y23469100D01*
X73035216Y23469100D01*
X73203026Y23510462D01*
X73356061Y23590781D01*
X73485428Y23705389D01*
X73583607Y23847627D01*
X73644894Y24009228D01*
X73665727Y24180800D01*
X73644894Y24352372D01*
X73583607Y24513973D01*
X73523953Y24600398D01*
X73485430Y24656209D01*
X73356061Y24770819D01*
X73203029Y24851137D01*
X73203027Y24851138D01*
X73203026Y24851138D01*
X73035216Y24892500D01*
X72862384Y24892500D01*
X72694574Y24851138D01*
X72694573Y24851138D01*
X72694570Y24851137D01*
X72541538Y24770819D01*
X72412169Y24656209D01*
X72313996Y24513979D01*
X72313993Y24513973D01*
X72252705Y24352371D01*
X72231873Y24180801D01*
X72231873Y24180800D01*
X59791663Y24180800D01*
X59744030Y24249809D01*
X59742481Y24251181D01*
X59614661Y24364419D01*
X59602686Y24370704D01*
X59461629Y24444737D01*
X59461627Y24444738D01*
X59461626Y24444738D01*
X59293816Y24486100D01*
X59120984Y24486100D01*
X58953174Y24444738D01*
X58953173Y24444738D01*
X58953170Y24444737D01*
X58800138Y24364419D01*
X58670770Y24249810D01*
X58646200Y24214213D01*
X58586504Y24163436D01*
X58509417Y24149309D01*
X58435595Y24175618D01*
X58397000Y24214213D01*
X58372429Y24249810D01*
X58370881Y24251181D01*
X58243061Y24364419D01*
X58231086Y24370704D01*
X58090029Y24444737D01*
X58090027Y24444738D01*
X58090026Y24444738D01*
X57922216Y24486100D01*
X57749384Y24486100D01*
X57581574Y24444738D01*
X57581573Y24444738D01*
X57581570Y24444737D01*
X57428538Y24364419D01*
X57299169Y24249809D01*
X57200996Y24107579D01*
X57200993Y24107573D01*
X57139705Y23945971D01*
X57118873Y23774401D01*
X57118873Y23774400D01*
X10211222Y23774400D01*
X10366081Y23841665D01*
X10606321Y23987758D01*
X10824430Y24165203D01*
X11016345Y24370694D01*
X11178492Y24600404D01*
X11303263Y24841200D01*
X46349273Y24841200D01*
X46370105Y24669630D01*
X46370106Y24669628D01*
X46431393Y24508027D01*
X46431394Y24508025D01*
X46431396Y24508022D01*
X46529569Y24365792D01*
X46529571Y24365790D01*
X46529572Y24365789D01*
X46658939Y24251181D01*
X46811974Y24170862D01*
X46979784Y24129500D01*
X46979787Y24129500D01*
X47152613Y24129500D01*
X47152616Y24129500D01*
X47320426Y24170862D01*
X47473461Y24251181D01*
X47602828Y24365789D01*
X47701007Y24508027D01*
X47762294Y24669628D01*
X47783127Y24841200D01*
X54197873Y24841200D01*
X54218705Y24669630D01*
X54218706Y24669628D01*
X54279993Y24508027D01*
X54279994Y24508025D01*
X54279996Y24508022D01*
X54378169Y24365792D01*
X54378171Y24365790D01*
X54378172Y24365789D01*
X54507539Y24251181D01*
X54660574Y24170862D01*
X54828384Y24129500D01*
X54828387Y24129500D01*
X55001213Y24129500D01*
X55001216Y24129500D01*
X55169026Y24170862D01*
X55322061Y24251181D01*
X55451428Y24365789D01*
X55549607Y24508027D01*
X55610894Y24669628D01*
X55631727Y24841200D01*
X55630520Y24851137D01*
X55610894Y25012771D01*
X55610894Y25012772D01*
X55549607Y25174373D01*
X55549603Y25174379D01*
X55451430Y25316609D01*
X55322061Y25431219D01*
X55169029Y25511537D01*
X55169027Y25511538D01*
X55169026Y25511538D01*
X55001216Y25552900D01*
X54828384Y25552900D01*
X54660574Y25511538D01*
X54660573Y25511538D01*
X54660570Y25511537D01*
X54507538Y25431219D01*
X54378169Y25316609D01*
X54279996Y25174379D01*
X54279993Y25174373D01*
X54218705Y25012771D01*
X54197873Y24841201D01*
X54197873Y24841200D01*
X47783127Y24841200D01*
X47781920Y24851137D01*
X47762294Y25012771D01*
X47762294Y25012772D01*
X47701007Y25174373D01*
X47701003Y25174379D01*
X47602830Y25316609D01*
X47473461Y25431219D01*
X47320429Y25511537D01*
X47320427Y25511538D01*
X47320426Y25511538D01*
X47152616Y25552900D01*
X46979784Y25552900D01*
X46811974Y25511538D01*
X46811973Y25511538D01*
X46811970Y25511537D01*
X46658938Y25431219D01*
X46529569Y25316609D01*
X46431396Y25174379D01*
X46431393Y25174373D01*
X46370105Y25012771D01*
X46349273Y24841201D01*
X46349273Y24841200D01*
X11303263Y24841200D01*
X11307850Y24850053D01*
X11402009Y25114991D01*
X11459215Y25390283D01*
X11478403Y25670800D01*
X90235697Y25670800D01*
X90254884Y25390286D01*
X90254887Y25390270D01*
X90312089Y25114995D01*
X90406249Y24850055D01*
X90406250Y24850053D01*
X90535608Y24600404D01*
X90535611Y24600400D01*
X90535612Y24600398D01*
X90697747Y24370704D01*
X90697759Y24370689D01*
X90843898Y24214213D01*
X90875103Y24180800D01*
X90889672Y24165201D01*
X91035076Y24046907D01*
X91107779Y23987758D01*
X91348019Y23841665D01*
X91605914Y23729645D01*
X91876660Y23653786D01*
X92155214Y23615500D01*
X92155215Y23615500D01*
X92436385Y23615500D01*
X92436386Y23615500D01*
X92714940Y23653786D01*
X92985686Y23729645D01*
X93243581Y23841665D01*
X93483821Y23987758D01*
X93701930Y24165203D01*
X93893845Y24370694D01*
X94055992Y24600404D01*
X94185350Y24850053D01*
X94279509Y25114991D01*
X94336715Y25390283D01*
X94355903Y25670800D01*
X94336715Y25951317D01*
X94279509Y26226609D01*
X94185350Y26491547D01*
X94055992Y26741196D01*
X93932031Y26916809D01*
X93893852Y26970897D01*
X93893840Y26970912D01*
X93701927Y27176400D01*
X93483821Y27353842D01*
X93483818Y27353844D01*
X93243581Y27499935D01*
X92985688Y27611954D01*
X92985686Y27611955D01*
X92714940Y27687814D01*
X92714937Y27687815D01*
X92714935Y27687815D01*
X92521422Y27714413D01*
X92436386Y27726100D01*
X92155214Y27726100D01*
X92090066Y27717146D01*
X91876664Y27687815D01*
X91876660Y27687815D01*
X91876660Y27687814D01*
X91605914Y27611955D01*
X91605912Y27611955D01*
X91605911Y27611954D01*
X91348018Y27499935D01*
X91107781Y27353844D01*
X91107778Y27353842D01*
X90889672Y27176400D01*
X90697759Y26970912D01*
X90697747Y26970897D01*
X90535612Y26741203D01*
X90406249Y26491546D01*
X90312089Y26226606D01*
X90254887Y25951331D01*
X90254884Y25951315D01*
X90235697Y25670801D01*
X90235697Y25670800D01*
X11478403Y25670800D01*
X11459215Y25951317D01*
X11402009Y26226609D01*
X11325672Y26441400D01*
X67558273Y26441400D01*
X67579105Y26269830D01*
X67579106Y26269828D01*
X67640393Y26108227D01*
X67640394Y26108225D01*
X67640396Y26108222D01*
X67738569Y25965992D01*
X67738571Y25965990D01*
X67738572Y25965989D01*
X67867939Y25851381D01*
X68020974Y25771062D01*
X68188784Y25729700D01*
X68188787Y25729700D01*
X68361613Y25729700D01*
X68361616Y25729700D01*
X68529426Y25771062D01*
X68682461Y25851381D01*
X68811828Y25965989D01*
X68910007Y26108227D01*
X68971294Y26269828D01*
X68992127Y26441400D01*
X68971294Y26612972D01*
X68910007Y26774573D01*
X68910003Y26774579D01*
X68811830Y26916809D01*
X68682461Y27031419D01*
X68529429Y27111737D01*
X68529427Y27111738D01*
X68529426Y27111738D01*
X68361616Y27153100D01*
X68188784Y27153100D01*
X68020974Y27111738D01*
X68020973Y27111738D01*
X68020970Y27111737D01*
X67867938Y27031419D01*
X67738569Y26916809D01*
X67640396Y26774579D01*
X67640393Y26774573D01*
X67579105Y26612971D01*
X67558273Y26441401D01*
X67558273Y26441400D01*
X11325672Y26441400D01*
X11307850Y26491547D01*
X11178492Y26741196D01*
X11054531Y26916809D01*
X11016352Y26970897D01*
X11016340Y26970912D01*
X10824427Y27176400D01*
X10606321Y27353842D01*
X10606318Y27353844D01*
X10366081Y27499935D01*
X10108188Y27611954D01*
X10108186Y27611955D01*
X9837440Y27687814D01*
X9837437Y27687815D01*
X9837435Y27687815D01*
X9643922Y27714413D01*
X9558886Y27726100D01*
X9277714Y27726100D01*
X9212566Y27717146D01*
X8999164Y27687815D01*
X8999160Y27687815D01*
X8999160Y27687814D01*
X8728414Y27611955D01*
X8728412Y27611955D01*
X8728411Y27611954D01*
X8470518Y27499935D01*
X8230281Y27353844D01*
X8230278Y27353842D01*
X8012172Y27176400D01*
X7820259Y26970912D01*
X7820247Y26970897D01*
X7658112Y26741203D01*
X7528749Y26491546D01*
X7434589Y26226606D01*
X7377387Y25951331D01*
X7377384Y25951315D01*
X7358197Y25670801D01*
X7358197Y25670800D01*
X432300Y25670800D01*
X432300Y29692600D01*
X59582673Y29692600D01*
X59603505Y29521030D01*
X59603506Y29521028D01*
X59664793Y29359427D01*
X59664794Y29359425D01*
X59664796Y29359422D01*
X59762969Y29217192D01*
X59762971Y29217190D01*
X59762972Y29217189D01*
X59892339Y29102581D01*
X60045374Y29022262D01*
X60213184Y28980900D01*
X60213187Y28980900D01*
X60386013Y28980900D01*
X60386016Y28980900D01*
X60553826Y29022262D01*
X60606887Y29050111D01*
X60683339Y29067330D01*
X60758161Y29044016D01*
X60811302Y28986414D01*
X60828522Y28909959D01*
X60824247Y28879827D01*
X60822706Y28873577D01*
X60801873Y28702001D01*
X60801873Y28702000D01*
X60822705Y28530430D01*
X60822706Y28530428D01*
X60883993Y28368827D01*
X60883994Y28368825D01*
X60883996Y28368822D01*
X60982169Y28226592D01*
X60982171Y28226590D01*
X60982172Y28226589D01*
X61111539Y28111981D01*
X61264574Y28031662D01*
X61432384Y27990300D01*
X61432387Y27990300D01*
X61605213Y27990300D01*
X61605216Y27990300D01*
X61773026Y28031662D01*
X61926061Y28111981D01*
X61988269Y28167093D01*
X62058380Y28202107D01*
X62136607Y28197376D01*
X62189059Y28167093D01*
X62279939Y28086581D01*
X62432974Y28006262D01*
X62600784Y27964900D01*
X62600787Y27964900D01*
X62773613Y27964900D01*
X62773616Y27964900D01*
X62941426Y28006262D01*
X63094461Y28086581D01*
X63223828Y28201189D01*
X63322007Y28343427D01*
X63383294Y28505028D01*
X63404127Y28676600D01*
X63394874Y28752800D01*
X67532873Y28752800D01*
X67553705Y28581230D01*
X67553706Y28581228D01*
X67614993Y28419627D01*
X67614994Y28419625D01*
X67614996Y28419622D01*
X67713169Y28277392D01*
X67713171Y28277390D01*
X67713172Y28277389D01*
X67842539Y28162781D01*
X67995574Y28082462D01*
X68163384Y28041100D01*
X68163387Y28041100D01*
X68336213Y28041100D01*
X68336216Y28041100D01*
X68504026Y28082462D01*
X68657061Y28162781D01*
X68786428Y28277389D01*
X68884607Y28419627D01*
X68945894Y28581228D01*
X68966727Y28752800D01*
X81883873Y28752800D01*
X81904705Y28581230D01*
X81904706Y28581228D01*
X81965993Y28419627D01*
X81965994Y28419625D01*
X81965996Y28419622D01*
X82064169Y28277392D01*
X82064171Y28277390D01*
X82064172Y28277389D01*
X82193539Y28162781D01*
X82346574Y28082462D01*
X82514384Y28041100D01*
X82514387Y28041100D01*
X82687213Y28041100D01*
X82687216Y28041100D01*
X82855026Y28082462D01*
X83008061Y28162781D01*
X83137428Y28277389D01*
X83235607Y28419627D01*
X83296894Y28581228D01*
X83317727Y28752800D01*
X83296894Y28924372D01*
X83235607Y29085973D01*
X83228830Y29095791D01*
X83137430Y29228209D01*
X83008061Y29342819D01*
X82855029Y29423137D01*
X82855027Y29423138D01*
X82855026Y29423138D01*
X82687216Y29464500D01*
X82514384Y29464500D01*
X82346574Y29423138D01*
X82346573Y29423138D01*
X82346570Y29423137D01*
X82193538Y29342819D01*
X82064169Y29228209D01*
X81965996Y29085979D01*
X81965993Y29085973D01*
X81904705Y28924371D01*
X81883873Y28752801D01*
X81883873Y28752800D01*
X68966727Y28752800D01*
X68945894Y28924372D01*
X68884607Y29085973D01*
X68877830Y29095791D01*
X68786430Y29228209D01*
X68657061Y29342819D01*
X68504029Y29423137D01*
X68504027Y29423138D01*
X68504026Y29423138D01*
X68336216Y29464500D01*
X68163384Y29464500D01*
X67995574Y29423138D01*
X67995573Y29423138D01*
X67995570Y29423137D01*
X67842538Y29342819D01*
X67713169Y29228209D01*
X67614996Y29085979D01*
X67614993Y29085973D01*
X67553705Y28924371D01*
X67532873Y28752801D01*
X67532873Y28752800D01*
X63394874Y28752800D01*
X63383294Y28848172D01*
X63322007Y29009773D01*
X63282279Y29067330D01*
X63223830Y29152009D01*
X63150256Y29217189D01*
X63094461Y29266619D01*
X62941429Y29346937D01*
X62941427Y29346938D01*
X62941426Y29346938D01*
X62773616Y29388300D01*
X62600784Y29388300D01*
X62432974Y29346938D01*
X62432973Y29346938D01*
X62432970Y29346937D01*
X62279938Y29266619D01*
X62217730Y29211508D01*
X62147617Y29176493D01*
X62069390Y29181226D01*
X62016939Y29211509D01*
X61926061Y29292019D01*
X61773029Y29372337D01*
X61773027Y29372338D01*
X61773026Y29372338D01*
X61605216Y29413700D01*
X61432384Y29413700D01*
X61264574Y29372338D01*
X61264572Y29372338D01*
X61264566Y29372335D01*
X61211512Y29344490D01*
X61135057Y29327271D01*
X61060235Y29350587D01*
X61007096Y29408190D01*
X60989877Y29484645D01*
X60994155Y29514786D01*
X60995690Y29521019D01*
X60995694Y29521028D01*
X61016527Y29692600D01*
X61011761Y29731847D01*
X60995694Y29864171D01*
X60987468Y29885862D01*
X60934407Y30025773D01*
X60934403Y30025779D01*
X60836230Y30168009D01*
X60800006Y30200100D01*
X60706861Y30282619D01*
X60675215Y30299228D01*
X60553829Y30362937D01*
X60553827Y30362938D01*
X60553826Y30362938D01*
X60386016Y30404300D01*
X60213184Y30404300D01*
X60045374Y30362938D01*
X60045373Y30362938D01*
X60045370Y30362937D01*
X59892338Y30282619D01*
X59762969Y30168009D01*
X59664796Y30025779D01*
X59664793Y30025773D01*
X59603505Y29864171D01*
X59582673Y29692601D01*
X59582673Y29692600D01*
X432300Y29692600D01*
X432300Y32020800D01*
X7358197Y32020800D01*
X7377384Y31740286D01*
X7377387Y31740270D01*
X7434589Y31464995D01*
X7520801Y31222419D01*
X7528750Y31200053D01*
X7658108Y30950404D01*
X7658111Y30950400D01*
X7658112Y30950398D01*
X7820247Y30720704D01*
X7820259Y30720689D01*
X8012172Y30515201D01*
X8109045Y30436389D01*
X8230279Y30337758D01*
X8470519Y30191665D01*
X8728414Y30079645D01*
X8999160Y30003786D01*
X9277714Y29965500D01*
X9277715Y29965500D01*
X9558885Y29965500D01*
X9558886Y29965500D01*
X9837440Y30003786D01*
X10108186Y30079645D01*
X10366081Y30191665D01*
X10606321Y30337758D01*
X10824430Y30515203D01*
X10862718Y30556200D01*
X25140273Y30556200D01*
X25161105Y30384630D01*
X25161106Y30384628D01*
X25222393Y30223027D01*
X25222394Y30223025D01*
X25222396Y30223022D01*
X25320569Y30080792D01*
X25320571Y30080790D01*
X25320572Y30080789D01*
X25449939Y29966181D01*
X25602974Y29885862D01*
X25770784Y29844500D01*
X25770787Y29844500D01*
X25943613Y29844500D01*
X25943616Y29844500D01*
X26111426Y29885862D01*
X26264461Y29966181D01*
X26393828Y30080789D01*
X26492007Y30223027D01*
X26553294Y30384628D01*
X26574127Y30556200D01*
X26571404Y30578622D01*
X26564874Y30632400D01*
X27400873Y30632400D01*
X27421705Y30460830D01*
X27421706Y30460828D01*
X27482993Y30299227D01*
X27482994Y30299225D01*
X27482996Y30299222D01*
X27581169Y30156992D01*
X27581171Y30156990D01*
X27581172Y30156989D01*
X27710539Y30042381D01*
X27784076Y30003786D01*
X27857021Y29965501D01*
X27863574Y29962062D01*
X28031384Y29920700D01*
X28031387Y29920700D01*
X28204213Y29920700D01*
X28204216Y29920700D01*
X28372026Y29962062D01*
X28525061Y30042381D01*
X28654428Y30156989D01*
X28752607Y30299227D01*
X28813894Y30460828D01*
X28834727Y30632400D01*
X28813894Y30803972D01*
X28773000Y30911800D01*
X43428273Y30911800D01*
X43449105Y30740230D01*
X43449106Y30740228D01*
X43510393Y30578627D01*
X43510394Y30578625D01*
X43510396Y30578622D01*
X43608569Y30436392D01*
X43608571Y30436390D01*
X43608572Y30436389D01*
X43737939Y30321781D01*
X43890974Y30241462D01*
X44058784Y30200100D01*
X44058787Y30200100D01*
X44231613Y30200100D01*
X44231616Y30200100D01*
X44399426Y30241462D01*
X44552461Y30321781D01*
X44681828Y30436389D01*
X44780007Y30578627D01*
X44841294Y30740228D01*
X44862127Y30911800D01*
X44841294Y31083372D01*
X44780007Y31244973D01*
X44740135Y31302738D01*
X44681830Y31387209D01*
X44675873Y31392486D01*
X44552461Y31501819D01*
X44399429Y31582137D01*
X44399427Y31582138D01*
X44399426Y31582138D01*
X44231616Y31623500D01*
X44058784Y31623500D01*
X43890974Y31582138D01*
X43890973Y31582138D01*
X43890970Y31582137D01*
X43737938Y31501819D01*
X43608569Y31387209D01*
X43510396Y31244979D01*
X43510393Y31244973D01*
X43449105Y31083371D01*
X43428273Y30911801D01*
X43428273Y30911800D01*
X28773000Y30911800D01*
X28752607Y30965573D01*
X28671297Y31083372D01*
X28654430Y31107809D01*
X28643835Y31117195D01*
X28525061Y31222419D01*
X28482077Y31244979D01*
X28372029Y31302737D01*
X28372027Y31302738D01*
X28372026Y31302738D01*
X28204216Y31344100D01*
X28031384Y31344100D01*
X27863574Y31302738D01*
X27863573Y31302738D01*
X27863570Y31302737D01*
X27710538Y31222419D01*
X27581169Y31107809D01*
X27482996Y30965579D01*
X27482993Y30965573D01*
X27421705Y30803971D01*
X27400873Y30632401D01*
X27400873Y30632400D01*
X26564874Y30632400D01*
X26553294Y30727771D01*
X26548569Y30740230D01*
X26492007Y30889373D01*
X26449881Y30950404D01*
X26393830Y31031609D01*
X26264461Y31146219D01*
X26111429Y31226537D01*
X26111427Y31226538D01*
X26111426Y31226538D01*
X25943616Y31267900D01*
X25770784Y31267900D01*
X25602974Y31226538D01*
X25602973Y31226538D01*
X25602970Y31226537D01*
X25449938Y31146219D01*
X25320569Y31031609D01*
X25222396Y30889379D01*
X25222393Y30889373D01*
X25161105Y30727771D01*
X25140273Y30556201D01*
X25140273Y30556200D01*
X10862718Y30556200D01*
X11016345Y30720694D01*
X11178492Y30950404D01*
X11307850Y31200053D01*
X11402009Y31464991D01*
X11445234Y31673000D01*
X90235697Y31673000D01*
X90254884Y31392486D01*
X90254887Y31392470D01*
X90312089Y31117195D01*
X90406249Y30852255D01*
X90406250Y30852253D01*
X90535608Y30602604D01*
X90535611Y30602600D01*
X90535612Y30602598D01*
X90697747Y30372904D01*
X90697759Y30372889D01*
X90889672Y30167401D01*
X90997538Y30079646D01*
X91107779Y29989958D01*
X91348019Y29843865D01*
X91605914Y29731845D01*
X91876660Y29655986D01*
X92155214Y29617700D01*
X92155215Y29617700D01*
X92436385Y29617700D01*
X92436386Y29617700D01*
X92714940Y29655986D01*
X92985686Y29731845D01*
X93243581Y29843865D01*
X93483821Y29989958D01*
X93701930Y30167403D01*
X93893845Y30372894D01*
X94055992Y30602604D01*
X94185350Y30852253D01*
X94279509Y31117191D01*
X94336715Y31392483D01*
X94355903Y31673000D01*
X94351300Y31740286D01*
X94349507Y31766506D01*
X94336715Y31953517D01*
X94279509Y32228809D01*
X94185350Y32493747D01*
X94055992Y32743396D01*
X93986710Y32841546D01*
X93893852Y32973097D01*
X93893840Y32973112D01*
X93701927Y33178600D01*
X93483821Y33356042D01*
X93483818Y33356044D01*
X93243581Y33502135D01*
X93187724Y33526397D01*
X92985686Y33614155D01*
X92714940Y33690014D01*
X92714937Y33690015D01*
X92714935Y33690015D01*
X92521422Y33716613D01*
X92436386Y33728300D01*
X92155214Y33728300D01*
X92090066Y33719346D01*
X91876664Y33690015D01*
X91876660Y33690015D01*
X91876660Y33690014D01*
X91605914Y33614155D01*
X91605912Y33614155D01*
X91605911Y33614154D01*
X91348018Y33502135D01*
X91107781Y33356044D01*
X91107778Y33356042D01*
X90889672Y33178600D01*
X90697759Y32973112D01*
X90697747Y32973097D01*
X90535612Y32743403D01*
X90406249Y32493746D01*
X90312089Y32228806D01*
X90254887Y31953531D01*
X90254884Y31953515D01*
X90235697Y31673001D01*
X90235697Y31673000D01*
X11445234Y31673000D01*
X11459215Y31740283D01*
X11478403Y32020800D01*
X11459215Y32301317D01*
X11404879Y32562800D01*
X11402010Y32576606D01*
X11307850Y32841546D01*
X11307850Y32841547D01*
X11178492Y33091196D01*
X11078299Y33233137D01*
X11016352Y33320897D01*
X11016340Y33320912D01*
X10828367Y33522181D01*
X10824430Y33526397D01*
X10824429Y33526398D01*
X10824427Y33526400D01*
X10606321Y33703842D01*
X10606318Y33703844D01*
X10366081Y33849935D01*
X10169271Y33935422D01*
X10108186Y33961955D01*
X9837440Y34037814D01*
X9837437Y34037815D01*
X9837435Y34037815D01*
X9643922Y34064413D01*
X9558886Y34076100D01*
X9277714Y34076100D01*
X9212566Y34067146D01*
X8999164Y34037815D01*
X8999160Y34037815D01*
X8999160Y34037814D01*
X8728414Y33961955D01*
X8728412Y33961955D01*
X8728411Y33961954D01*
X8470518Y33849935D01*
X8230281Y33703844D01*
X8230278Y33703842D01*
X8012172Y33526400D01*
X7820259Y33320912D01*
X7820247Y33320897D01*
X7658112Y33091203D01*
X7658109Y33091198D01*
X7658108Y33091196D01*
X7630652Y33038209D01*
X7528749Y32841546D01*
X7434589Y32576606D01*
X7377387Y32301331D01*
X7377384Y32301315D01*
X7358197Y32020801D01*
X7358197Y32020800D01*
X432300Y32020800D01*
X432300Y35090800D01*
X10861479Y35090800D01*
X10880724Y34870821D01*
X10937878Y34657524D01*
X10937881Y34657514D01*
X11031196Y34457399D01*
X11031200Y34457391D01*
X11076558Y34392613D01*
X11677996Y34994052D01*
X11699649Y34913247D01*
X11760209Y34808354D01*
X11845854Y34722709D01*
X11950747Y34662149D01*
X12031550Y34640498D01*
X11430110Y34039059D01*
X11494886Y33993703D01*
X11494896Y33993697D01*
X11695013Y33900382D01*
X11695023Y33900379D01*
X11908322Y33843225D01*
X11908318Y33843225D01*
X12128300Y33823980D01*
X12348279Y33843225D01*
X12561576Y33900379D01*
X12561586Y33900382D01*
X12761709Y33993701D01*
X12761717Y33993706D01*
X12826487Y34039059D01*
X12826488Y34039059D01*
X12753347Y34112200D01*
X62986273Y34112200D01*
X63007105Y33940630D01*
X63018761Y33909896D01*
X63068393Y33779027D01*
X63068394Y33779025D01*
X63068396Y33779022D01*
X63166569Y33636792D01*
X63166571Y33636790D01*
X63166572Y33636789D01*
X63295939Y33522181D01*
X63325573Y33506628D01*
X63383176Y33453488D01*
X63406491Y33378666D01*
X63389272Y33302211D01*
X63379815Y33286566D01*
X63373193Y33276973D01*
X63311905Y33115371D01*
X63291073Y32943801D01*
X63291073Y32943800D01*
X63311905Y32772230D01*
X63326263Y32734372D01*
X63373193Y32610627D01*
X63373194Y32610625D01*
X63373196Y32610622D01*
X63471369Y32468392D01*
X63471371Y32468390D01*
X63471372Y32468389D01*
X63600739Y32353781D01*
X63753774Y32273462D01*
X63921584Y32232100D01*
X63921587Y32232100D01*
X64094413Y32232100D01*
X64094416Y32232100D01*
X64262226Y32273462D01*
X64415261Y32353781D01*
X64544628Y32468389D01*
X64609795Y32562800D01*
X70834873Y32562800D01*
X70855705Y32391230D01*
X70855706Y32391228D01*
X70916993Y32229627D01*
X70916994Y32229625D01*
X70916996Y32229622D01*
X71015169Y32087392D01*
X71015171Y32087390D01*
X71015172Y32087389D01*
X71144539Y31972781D01*
X71297574Y31892462D01*
X71465384Y31851100D01*
X71465387Y31851100D01*
X71638213Y31851100D01*
X71638216Y31851100D01*
X71806026Y31892462D01*
X71959061Y31972781D01*
X72088428Y32087389D01*
X72186607Y32229627D01*
X72247894Y32391228D01*
X72268727Y32562800D01*
X72247894Y32734372D01*
X72186607Y32895973D01*
X72133373Y32973097D01*
X72088430Y33038209D01*
X71959061Y33152819D01*
X71806029Y33233137D01*
X71806027Y33233138D01*
X71806026Y33233138D01*
X71638216Y33274500D01*
X71465384Y33274500D01*
X71297574Y33233138D01*
X71297573Y33233138D01*
X71297570Y33233137D01*
X71144538Y33152819D01*
X71015169Y33038209D01*
X70916996Y32895979D01*
X70916993Y32895973D01*
X70855705Y32734371D01*
X70834873Y32562801D01*
X70834873Y32562800D01*
X64609795Y32562800D01*
X64642807Y32610627D01*
X64704094Y32772228D01*
X64724927Y32943800D01*
X64704094Y33115372D01*
X64642807Y33276973D01*
X64642803Y33276979D01*
X64544630Y33419209D01*
X64415259Y33533821D01*
X64385625Y33549374D01*
X64328023Y33602514D01*
X64304708Y33677336D01*
X64321928Y33753791D01*
X64331378Y33769424D01*
X64338007Y33779027D01*
X64397319Y33935420D01*
X88518500Y33935420D01*
X88521461Y33909893D01*
X88521462Y33909891D01*
X88567566Y33805475D01*
X88648275Y33724766D01*
X88752691Y33678662D01*
X88778221Y33675700D01*
X90393378Y33675701D01*
X90393380Y33675701D01*
X90406143Y33677182D01*
X90418909Y33678662D01*
X90523325Y33724766D01*
X90604034Y33805475D01*
X90650138Y33909891D01*
X90653100Y33935421D01*
X90653099Y35550578D01*
X90653073Y35550800D01*
X90650138Y35576108D01*
X90650137Y35576111D01*
X90604034Y35680525D01*
X90523325Y35761234D01*
X90460466Y35788989D01*
X90418910Y35807338D01*
X90418904Y35807339D01*
X90393381Y35810300D01*
X88778219Y35810300D01*
X88752692Y35807339D01*
X88711134Y35788989D01*
X88648275Y35761234D01*
X88648274Y35761233D01*
X88648273Y35761233D01*
X88567566Y35680526D01*
X88521462Y35576111D01*
X88521461Y35576105D01*
X88518500Y35550582D01*
X88518500Y33935420D01*
X64397319Y33935420D01*
X64399294Y33940628D01*
X64420127Y34112200D01*
X64399294Y34283772D01*
X64338007Y34445373D01*
X64329706Y34457399D01*
X64239830Y34587609D01*
X64110461Y34702219D01*
X64032760Y34743000D01*
X82010873Y34743000D01*
X82031705Y34571430D01*
X82031706Y34571428D01*
X82092993Y34409827D01*
X82092994Y34409825D01*
X82092996Y34409822D01*
X82191169Y34267592D01*
X82191171Y34267590D01*
X82191172Y34267589D01*
X82320539Y34152981D01*
X82473574Y34072662D01*
X82641384Y34031300D01*
X82641387Y34031300D01*
X82814213Y34031300D01*
X82814216Y34031300D01*
X82982026Y34072662D01*
X83135061Y34152981D01*
X83264428Y34267589D01*
X83362607Y34409827D01*
X83423894Y34571428D01*
X83444727Y34743000D01*
X83423894Y34914572D01*
X83362607Y35076173D01*
X83310710Y35151360D01*
X83264430Y35218409D01*
X83208054Y35268353D01*
X83135061Y35333019D01*
X83058415Y35373246D01*
X82982029Y35413337D01*
X82982027Y35413338D01*
X82982026Y35413338D01*
X82814216Y35454700D01*
X82641384Y35454700D01*
X82473574Y35413338D01*
X82473573Y35413338D01*
X82473570Y35413337D01*
X82320538Y35333019D01*
X82191169Y35218409D01*
X82092996Y35076179D01*
X82092993Y35076173D01*
X82031705Y34914571D01*
X82010873Y34743001D01*
X82010873Y34743000D01*
X64032760Y34743000D01*
X63957429Y34782537D01*
X63957427Y34782538D01*
X63957426Y34782538D01*
X63789616Y34823900D01*
X63616784Y34823900D01*
X63448974Y34782538D01*
X63448973Y34782538D01*
X63448970Y34782537D01*
X63295938Y34702219D01*
X63166569Y34587609D01*
X63068396Y34445379D01*
X63068393Y34445373D01*
X63007105Y34283771D01*
X62986273Y34112201D01*
X62986273Y34112200D01*
X12753347Y34112200D01*
X12225049Y34640498D01*
X12305853Y34662149D01*
X12410746Y34722709D01*
X12496391Y34808354D01*
X12556951Y34913247D01*
X12578602Y34994051D01*
X13180041Y34392612D01*
X13180041Y34392613D01*
X13225394Y34457383D01*
X13225399Y34457391D01*
X13318718Y34657514D01*
X13318721Y34657524D01*
X13375875Y34870821D01*
X13395120Y35090800D01*
X13375875Y35310780D01*
X13318721Y35524077D01*
X13318718Y35524087D01*
X13225401Y35724207D01*
X13225398Y35724212D01*
X13180041Y35788989D01*
X13180040Y35788989D01*
X12578602Y35187551D01*
X12556951Y35268353D01*
X12496391Y35373246D01*
X12410746Y35458891D01*
X12305853Y35519451D01*
X12225048Y35541104D01*
X12599545Y35915600D01*
X29661473Y35915600D01*
X29682305Y35744030D01*
X29682306Y35744028D01*
X29743593Y35582427D01*
X29743594Y35582425D01*
X29743596Y35582422D01*
X29841769Y35440192D01*
X29841771Y35440190D01*
X29841772Y35440189D01*
X29971139Y35325581D01*
X30124174Y35245262D01*
X30291984Y35203900D01*
X30291987Y35203900D01*
X30464813Y35203900D01*
X30464816Y35203900D01*
X30632626Y35245262D01*
X30785661Y35325581D01*
X30915028Y35440189D01*
X31013207Y35582427D01*
X31074494Y35744028D01*
X31095327Y35915600D01*
X31074494Y36087172D01*
X31013207Y36248773D01*
X30992763Y36278392D01*
X30915030Y36391009D01*
X30785661Y36505619D01*
X30632629Y36585937D01*
X30632627Y36585938D01*
X30632626Y36585938D01*
X30464816Y36627300D01*
X30291984Y36627300D01*
X30124174Y36585938D01*
X30124173Y36585938D01*
X30124170Y36585937D01*
X29971138Y36505619D01*
X29841769Y36391009D01*
X29743596Y36248779D01*
X29743593Y36248773D01*
X29682305Y36087171D01*
X29661473Y35915601D01*
X29661473Y35915600D01*
X12599545Y35915600D01*
X12826488Y36142542D01*
X12761709Y36187900D01*
X12761701Y36187904D01*
X12561586Y36281219D01*
X12561579Y36281222D01*
X12503605Y36296756D01*
X12435735Y36335942D01*
X12396550Y36403814D01*
X12396551Y36482184D01*
X12435737Y36550054D01*
X12498843Y36587878D01*
X12538714Y36599972D01*
X12724129Y36699079D01*
X12790807Y36753800D01*
X57169673Y36753800D01*
X57190505Y36582230D01*
X57190506Y36582228D01*
X57251793Y36420627D01*
X57251794Y36420625D01*
X57251796Y36420622D01*
X57349969Y36278392D01*
X57349971Y36278390D01*
X57349972Y36278389D01*
X57479339Y36163781D01*
X57632374Y36083462D01*
X57800184Y36042100D01*
X57800187Y36042100D01*
X57973013Y36042100D01*
X57973016Y36042100D01*
X58140826Y36083462D01*
X58293861Y36163781D01*
X58423228Y36278389D01*
X58473541Y36351280D01*
X58511300Y36405984D01*
X58570995Y36456762D01*
X58648081Y36470889D01*
X58721904Y36444580D01*
X58760500Y36405984D01*
X58848569Y36278392D01*
X58848571Y36278390D01*
X58848572Y36278389D01*
X58977939Y36163781D01*
X59130974Y36083462D01*
X59298784Y36042100D01*
X59298787Y36042100D01*
X59471613Y36042100D01*
X59471616Y36042100D01*
X59639426Y36083462D01*
X59792461Y36163781D01*
X59921828Y36278389D01*
X60020007Y36420627D01*
X60081294Y36582228D01*
X60102127Y36753800D01*
X60081294Y36925372D01*
X60020007Y37086973D01*
X60009899Y37101617D01*
X59921830Y37229209D01*
X59792461Y37343819D01*
X59639429Y37424137D01*
X59639427Y37424138D01*
X59639426Y37424138D01*
X59471616Y37465500D01*
X59298784Y37465500D01*
X59130974Y37424138D01*
X59130973Y37424138D01*
X59130970Y37424137D01*
X58977938Y37343819D01*
X58848569Y37229209D01*
X58760500Y37101617D01*
X58700805Y37050839D01*
X58623718Y37036712D01*
X58549896Y37063021D01*
X58511300Y37101617D01*
X58423230Y37229209D01*
X58293861Y37343819D01*
X58140829Y37424137D01*
X58140827Y37424138D01*
X58140826Y37424138D01*
X57973016Y37465500D01*
X57800184Y37465500D01*
X57632374Y37424138D01*
X57632373Y37424138D01*
X57632370Y37424137D01*
X57479338Y37343819D01*
X57349969Y37229209D01*
X57251796Y37086979D01*
X57251793Y37086973D01*
X57190505Y36925371D01*
X57169673Y36753801D01*
X57169673Y36753800D01*
X12790807Y36753800D01*
X12886647Y36832453D01*
X13020021Y36994971D01*
X13119128Y37180386D01*
X13180157Y37381573D01*
X13200764Y37590800D01*
X13180157Y37800027D01*
X13119128Y38001214D01*
X13020021Y38186629D01*
X13020020Y38186631D01*
X13007735Y38201600D01*
X52597673Y38201600D01*
X52618505Y38030030D01*
X52618506Y38030028D01*
X52679793Y37868427D01*
X52679794Y37868425D01*
X52679796Y37868422D01*
X52777969Y37726192D01*
X52777971Y37726190D01*
X52777972Y37726189D01*
X52907339Y37611581D01*
X53060374Y37531262D01*
X53228184Y37489900D01*
X53228187Y37489900D01*
X53401013Y37489900D01*
X53401016Y37489900D01*
X53568826Y37531262D01*
X53721861Y37611581D01*
X53851228Y37726189D01*
X53949407Y37868427D01*
X54010694Y38030028D01*
X54031527Y38201600D01*
X54010694Y38373172D01*
X53949407Y38534773D01*
X53947547Y38537468D01*
X53851230Y38677009D01*
X53816435Y38707834D01*
X53721861Y38791619D01*
X53568829Y38871937D01*
X53568827Y38871938D01*
X53568826Y38871938D01*
X53401016Y38913300D01*
X53228184Y38913300D01*
X53060374Y38871938D01*
X53060373Y38871938D01*
X53060370Y38871937D01*
X52907338Y38791619D01*
X52777969Y38677009D01*
X52679796Y38534779D01*
X52679793Y38534773D01*
X52618505Y38373171D01*
X52597673Y38201601D01*
X52597673Y38201600D01*
X13007735Y38201600D01*
X12886651Y38349143D01*
X12886647Y38349147D01*
X12857372Y38373172D01*
X12734795Y38473768D01*
X12689147Y38537468D01*
X12681465Y38615461D01*
X12713808Y38686846D01*
X12734791Y38707830D01*
X12886647Y38832453D01*
X13020021Y38994971D01*
X13119128Y39180386D01*
X13180157Y39381573D01*
X13200764Y39590800D01*
X13180157Y39800027D01*
X13119128Y40001214D01*
X13020021Y40186629D01*
X13020020Y40186631D01*
X12886651Y40349143D01*
X12886642Y40349152D01*
X12724130Y40482521D01*
X12724128Y40482522D01*
X12593062Y40552578D01*
X12572067Y40563800D01*
X71215873Y40563800D01*
X71236705Y40392230D01*
X71253044Y40349147D01*
X71297993Y40230627D01*
X71297994Y40230625D01*
X71297996Y40230622D01*
X71396169Y40088392D01*
X71396171Y40088390D01*
X71396172Y40088389D01*
X71525539Y39973781D01*
X71678574Y39893462D01*
X71846384Y39852100D01*
X71846387Y39852100D01*
X72019213Y39852100D01*
X72019216Y39852100D01*
X72187026Y39893462D01*
X72340061Y39973781D01*
X72469428Y40088389D01*
X72567607Y40230627D01*
X72628894Y40392228D01*
X72649727Y40563800D01*
X72628894Y40735372D01*
X72567607Y40896973D01*
X72567603Y40896979D01*
X72469430Y41039209D01*
X72463105Y41044812D01*
X72340061Y41153819D01*
X72187029Y41234137D01*
X72187027Y41234138D01*
X72187026Y41234138D01*
X72019216Y41275500D01*
X71846384Y41275500D01*
X71678574Y41234138D01*
X71678573Y41234138D01*
X71678570Y41234137D01*
X71525538Y41153819D01*
X71396169Y41039209D01*
X71297996Y40896979D01*
X71297993Y40896973D01*
X71236705Y40735371D01*
X71215873Y40563801D01*
X71215873Y40563800D01*
X12572067Y40563800D01*
X12538714Y40581628D01*
X12538711Y40581629D01*
X12337525Y40642658D01*
X12128300Y40663264D01*
X11919074Y40642658D01*
X11919073Y40642658D01*
X11717888Y40581629D01*
X11532471Y40482522D01*
X11532469Y40482521D01*
X11369957Y40349152D01*
X11369948Y40349143D01*
X11236579Y40186631D01*
X11236578Y40186629D01*
X11137471Y40001212D01*
X11076442Y39800027D01*
X11076442Y39800026D01*
X11055836Y39590800D01*
X11076442Y39381575D01*
X11076442Y39381574D01*
X11118478Y39243000D01*
X11137472Y39180386D01*
X11193424Y39075708D01*
X11236578Y38994972D01*
X11236579Y38994970D01*
X11369948Y38832458D01*
X11369953Y38832453D01*
X11521803Y38707834D01*
X11567452Y38644131D01*
X11575134Y38566138D01*
X11542790Y38494753D01*
X11521803Y38473766D01*
X11369953Y38349148D01*
X11369948Y38349143D01*
X11236579Y38186631D01*
X11236578Y38186629D01*
X11137471Y38001212D01*
X11076442Y37800027D01*
X11076442Y37800026D01*
X11055836Y37590800D01*
X11076442Y37381575D01*
X11076442Y37381574D01*
X11087895Y37343819D01*
X11137472Y37180386D01*
X11179575Y37101617D01*
X11236578Y36994972D01*
X11236579Y36994970D01*
X11369948Y36832458D01*
X11369957Y36832449D01*
X11532469Y36699080D01*
X11532471Y36699079D01*
X11717886Y36599972D01*
X11717888Y36599972D01*
X11717889Y36599971D01*
X11717892Y36599970D01*
X11757754Y36587878D01*
X11824307Y36546494D01*
X11861252Y36477378D01*
X11858688Y36399050D01*
X11817304Y36332497D01*
X11752995Y36296756D01*
X11695018Y36281221D01*
X11695013Y36281219D01*
X11494894Y36187902D01*
X11494888Y36187899D01*
X11430111Y36142543D01*
X11430111Y36142542D01*
X12031550Y35541103D01*
X11950747Y35519451D01*
X11845854Y35458891D01*
X11760209Y35373246D01*
X11699649Y35268353D01*
X11677997Y35187550D01*
X11076558Y35788989D01*
X11076557Y35788989D01*
X11031201Y35724212D01*
X11031198Y35724206D01*
X10937881Y35524087D01*
X10937878Y35524077D01*
X10880724Y35310780D01*
X10861479Y35090800D01*
X432300Y35090800D01*
X432300Y41283220D01*
X11061000Y41283220D01*
X11063961Y41257693D01*
X11063962Y41257691D01*
X11110066Y41153275D01*
X11190775Y41072566D01*
X11295191Y41026462D01*
X11320721Y41023500D01*
X12935878Y41023501D01*
X12935880Y41023501D01*
X12948643Y41024982D01*
X12961409Y41026462D01*
X13065825Y41072566D01*
X13146534Y41153275D01*
X13192638Y41257691D01*
X13195600Y41283221D01*
X13195600Y41743000D01*
X88318979Y41743000D01*
X88338224Y41523021D01*
X88395378Y41309724D01*
X88395381Y41309714D01*
X88488696Y41109599D01*
X88488700Y41109591D01*
X88534058Y41044813D01*
X89135496Y41646252D01*
X89157149Y41565447D01*
X89217709Y41460554D01*
X89303354Y41374909D01*
X89408247Y41314349D01*
X89489050Y41292698D01*
X88887610Y40691259D01*
X88952386Y40645903D01*
X88952396Y40645897D01*
X89152513Y40552582D01*
X89152525Y40552578D01*
X89210492Y40537045D01*
X89278363Y40497860D01*
X89317548Y40429989D01*
X89317548Y40351619D01*
X89278363Y40283748D01*
X89215257Y40245924D01*
X89175394Y40233832D01*
X89175389Y40233830D01*
X88989971Y40134722D01*
X88989969Y40134721D01*
X88827457Y40001352D01*
X88827448Y40001343D01*
X88694079Y39838831D01*
X88694078Y39838829D01*
X88594971Y39653412D01*
X88533942Y39452227D01*
X88533942Y39452226D01*
X88513336Y39243000D01*
X88533942Y39033775D01*
X88533942Y39033774D01*
X88570488Y38913300D01*
X88594972Y38832586D01*
X88650924Y38727908D01*
X88694078Y38647172D01*
X88694079Y38647170D01*
X88827448Y38484658D01*
X88827453Y38484653D01*
X88979303Y38360034D01*
X89024952Y38296331D01*
X89032634Y38218338D01*
X89000290Y38146953D01*
X88979303Y38125966D01*
X88827453Y38001348D01*
X88827448Y38001343D01*
X88694079Y37838831D01*
X88694078Y37838829D01*
X88594971Y37653412D01*
X88533942Y37452227D01*
X88533942Y37452226D01*
X88513336Y37243000D01*
X88533942Y37033775D01*
X88533942Y37033774D01*
X88566826Y36925371D01*
X88594972Y36832586D01*
X88637084Y36753801D01*
X88694078Y36647172D01*
X88694079Y36647170D01*
X88827448Y36484658D01*
X88827457Y36484649D01*
X88989969Y36351280D01*
X88989971Y36351279D01*
X89175386Y36252172D01*
X89376573Y36191143D01*
X89585800Y36170536D01*
X89795027Y36191143D01*
X89996214Y36252172D01*
X90181629Y36351279D01*
X90344147Y36484653D01*
X90477521Y36647171D01*
X90576628Y36832586D01*
X90637657Y37033773D01*
X90658264Y37243000D01*
X90637657Y37452227D01*
X90576628Y37653414D01*
X90477521Y37838829D01*
X90477520Y37838831D01*
X90344151Y38001343D01*
X90344147Y38001347D01*
X90309196Y38030030D01*
X90192295Y38125968D01*
X90146647Y38189668D01*
X90138965Y38267661D01*
X90171308Y38339046D01*
X90192291Y38360030D01*
X90344147Y38484653D01*
X90477521Y38647171D01*
X90576628Y38832586D01*
X90637657Y39033773D01*
X90658264Y39243000D01*
X90637657Y39452227D01*
X90576628Y39653414D01*
X90477521Y39838829D01*
X90477520Y39838831D01*
X90344151Y40001343D01*
X90344142Y40001352D01*
X90181630Y40134721D01*
X90181628Y40134722D01*
X89996211Y40233830D01*
X89956343Y40245923D01*
X89889790Y40287308D01*
X89852847Y40356425D01*
X89855411Y40434753D01*
X89896796Y40501306D01*
X89961107Y40537045D01*
X90019074Y40552578D01*
X90019086Y40552582D01*
X90219209Y40645901D01*
X90219217Y40645906D01*
X90283987Y40691259D01*
X90283988Y40691259D01*
X89682549Y41292698D01*
X89763353Y41314349D01*
X89868246Y41374909D01*
X89953891Y41460554D01*
X90014451Y41565447D01*
X90036102Y41646251D01*
X90637541Y41044812D01*
X90637541Y41044813D01*
X90682894Y41109583D01*
X90682899Y41109591D01*
X90776218Y41309714D01*
X90776221Y41309724D01*
X90833375Y41523021D01*
X90852620Y41743000D01*
X90833375Y41962980D01*
X90776221Y42176277D01*
X90776218Y42176287D01*
X90682901Y42376407D01*
X90682898Y42376412D01*
X90637541Y42441189D01*
X90637540Y42441189D01*
X90036102Y41839751D01*
X90014451Y41920553D01*
X89953891Y42025446D01*
X89868246Y42111091D01*
X89763353Y42171651D01*
X89682548Y42193304D01*
X90283988Y42794742D01*
X90219209Y42840100D01*
X90219201Y42840104D01*
X90019086Y42933419D01*
X90019076Y42933422D01*
X89805777Y42990576D01*
X89805781Y42990576D01*
X89585800Y43009821D01*
X89365820Y42990576D01*
X89152523Y42933422D01*
X89152513Y42933419D01*
X88952394Y42840102D01*
X88952388Y42840099D01*
X88887611Y42794743D01*
X88887611Y42794742D01*
X89489050Y42193303D01*
X89408247Y42171651D01*
X89303354Y42111091D01*
X89217709Y42025446D01*
X89157149Y41920553D01*
X89135497Y41839750D01*
X88534058Y42441189D01*
X88534057Y42441189D01*
X88488701Y42376412D01*
X88488698Y42376406D01*
X88395381Y42176287D01*
X88395378Y42176277D01*
X88338224Y41962980D01*
X88318979Y41743000D01*
X13195600Y41743000D01*
X13195599Y42293220D01*
X58447500Y42293220D01*
X58450461Y42267693D01*
X58450462Y42267691D01*
X58496566Y42163275D01*
X58577275Y42082566D01*
X58681691Y42036462D01*
X58707221Y42033500D01*
X62298378Y42033501D01*
X62298380Y42033501D01*
X62311143Y42034982D01*
X62323909Y42036462D01*
X62428325Y42082566D01*
X62509034Y42163275D01*
X62555138Y42267691D01*
X62558100Y42293221D01*
X62558099Y44813000D01*
X90235697Y44813000D01*
X90254884Y44532486D01*
X90254887Y44532470D01*
X90312089Y44257195D01*
X90400560Y44008263D01*
X90406250Y43992253D01*
X90535608Y43742604D01*
X90535611Y43742600D01*
X90535612Y43742598D01*
X90697747Y43512904D01*
X90697759Y43512889D01*
X90889672Y43307401D01*
X90997538Y43219646D01*
X91107779Y43129958D01*
X91348019Y42983865D01*
X91605914Y42871845D01*
X91876660Y42795986D01*
X92155214Y42757700D01*
X92155215Y42757700D01*
X92436385Y42757700D01*
X92436386Y42757700D01*
X92714940Y42795986D01*
X92985686Y42871845D01*
X93243581Y42983865D01*
X93483821Y43129958D01*
X93701930Y43307403D01*
X93893845Y43512894D01*
X94055992Y43742604D01*
X94185350Y43992253D01*
X94279509Y44257191D01*
X94336715Y44532483D01*
X94355903Y44813000D01*
X94351300Y44880286D01*
X94336715Y45093515D01*
X94336712Y45093531D01*
X94279510Y45368806D01*
X94185350Y45633746D01*
X94185350Y45633747D01*
X94055992Y45883396D01*
X93986710Y45981546D01*
X93893852Y46113097D01*
X93893840Y46113112D01*
X93701927Y46318600D01*
X93483821Y46496042D01*
X93483818Y46496044D01*
X93243581Y46642135D01*
X93187724Y46666397D01*
X92985686Y46754155D01*
X92714940Y46830014D01*
X92714937Y46830015D01*
X92714935Y46830015D01*
X92521422Y46856613D01*
X92436386Y46868300D01*
X92155214Y46868300D01*
X92090066Y46859346D01*
X91876664Y46830015D01*
X91876660Y46830015D01*
X91876660Y46830014D01*
X91605914Y46754155D01*
X91605912Y46754155D01*
X91605911Y46754154D01*
X91348018Y46642135D01*
X91107781Y46496044D01*
X91107778Y46496042D01*
X90889672Y46318600D01*
X90697759Y46113112D01*
X90697747Y46113097D01*
X90535612Y45883403D01*
X90406249Y45633746D01*
X90312089Y45368806D01*
X90254887Y45093531D01*
X90254884Y45093515D01*
X90235697Y44813001D01*
X90235697Y44813000D01*
X62558099Y44813000D01*
X62558099Y45884378D01*
X62555138Y45909909D01*
X62509034Y46014325D01*
X62428325Y46095034D01*
X62371282Y46120221D01*
X62323910Y46141138D01*
X62323904Y46141139D01*
X62298381Y46144100D01*
X58707219Y46144100D01*
X58681692Y46141139D01*
X58634318Y46120221D01*
X58577275Y46095034D01*
X58577274Y46095033D01*
X58577273Y46095033D01*
X58496566Y46014326D01*
X58450462Y45909911D01*
X58450461Y45909905D01*
X58447500Y45884382D01*
X58447500Y42293220D01*
X13195599Y42293220D01*
X13195599Y42898378D01*
X13192638Y42923909D01*
X13146534Y43028325D01*
X13065825Y43109034D01*
X13018439Y43129957D01*
X12961410Y43155138D01*
X12961404Y43155139D01*
X12935881Y43158100D01*
X11320719Y43158100D01*
X11295192Y43155139D01*
X11242983Y43132086D01*
X11190775Y43109034D01*
X11190774Y43109033D01*
X11190773Y43109033D01*
X11110066Y43028326D01*
X11063962Y42923911D01*
X11063961Y42923905D01*
X11061000Y42898382D01*
X11061000Y41283220D01*
X432300Y41283220D01*
X432300Y45160800D01*
X7358197Y45160800D01*
X7377384Y44880286D01*
X7377387Y44880270D01*
X7434589Y44604995D01*
X7526840Y44345427D01*
X7528750Y44340053D01*
X7658108Y44090404D01*
X7658111Y44090400D01*
X7658112Y44090398D01*
X7820247Y43860704D01*
X7820259Y43860689D01*
X7930543Y43742604D01*
X8012170Y43655203D01*
X8230279Y43477758D01*
X8470519Y43331665D01*
X8728414Y43219645D01*
X8999160Y43143786D01*
X9277714Y43105500D01*
X9277715Y43105500D01*
X9558885Y43105500D01*
X9558886Y43105500D01*
X9837440Y43143786D01*
X10108186Y43219645D01*
X10366081Y43331665D01*
X10606321Y43477758D01*
X10824430Y43655203D01*
X11016345Y43860694D01*
X11178492Y44090404D01*
X11307850Y44340053D01*
X11402009Y44604991D01*
X11422583Y44704000D01*
X33776273Y44704000D01*
X33797105Y44532430D01*
X33797106Y44532428D01*
X33858393Y44370827D01*
X33858394Y44370825D01*
X33858396Y44370822D01*
X33956569Y44228592D01*
X33956571Y44228590D01*
X33956572Y44228589D01*
X34085939Y44113981D01*
X34238974Y44033662D01*
X34406784Y43992300D01*
X34406787Y43992300D01*
X34579613Y43992300D01*
X34579616Y43992300D01*
X34747426Y44033662D01*
X34900461Y44113981D01*
X34937268Y44146590D01*
X35007379Y44181605D01*
X35085606Y44176874D01*
X35138059Y44146591D01*
X35203539Y44088581D01*
X35356574Y44008262D01*
X35524384Y43966900D01*
X35524387Y43966900D01*
X35697213Y43966900D01*
X35697216Y43966900D01*
X35865026Y44008262D01*
X36018061Y44088581D01*
X36147428Y44203189D01*
X36245607Y44345427D01*
X36306894Y44507028D01*
X36327727Y44678600D01*
X36306894Y44850172D01*
X36245607Y45011773D01*
X36189174Y45093531D01*
X36147430Y45154009D01*
X36139764Y45160800D01*
X36018061Y45268619D01*
X35865029Y45348937D01*
X35865027Y45348938D01*
X35865026Y45348938D01*
X35697216Y45390300D01*
X35524384Y45390300D01*
X35356574Y45348938D01*
X35356573Y45348938D01*
X35356570Y45348937D01*
X35203538Y45268619D01*
X35166730Y45236010D01*
X35096617Y45200995D01*
X35018390Y45205728D01*
X34965939Y45236011D01*
X34900461Y45294019D01*
X34747429Y45374337D01*
X34747427Y45374338D01*
X34747426Y45374338D01*
X34579616Y45415700D01*
X34406784Y45415700D01*
X34238974Y45374338D01*
X34238973Y45374338D01*
X34238970Y45374337D01*
X34085938Y45294019D01*
X33956569Y45179409D01*
X33858396Y45037179D01*
X33858393Y45037173D01*
X33797105Y44875571D01*
X33776273Y44704001D01*
X33776273Y44704000D01*
X11422583Y44704000D01*
X11459215Y44880283D01*
X11478403Y45160800D01*
X11459215Y45441317D01*
X11419228Y45633747D01*
X11402010Y45716606D01*
X11402009Y45716609D01*
X11307850Y45981547D01*
X11178492Y46231196D01*
X11116796Y46318600D01*
X11016352Y46460897D01*
X11016340Y46460912D01*
X10824427Y46666400D01*
X10606321Y46843842D01*
X10606318Y46843844D01*
X10366081Y46989935D01*
X10108188Y47101954D01*
X10108186Y47101955D01*
X9837440Y47177814D01*
X9837437Y47177815D01*
X9837435Y47177815D01*
X9643922Y47204413D01*
X9558886Y47216100D01*
X9277714Y47216100D01*
X9212566Y47207146D01*
X8999164Y47177815D01*
X8999160Y47177815D01*
X8999160Y47177814D01*
X8728414Y47101955D01*
X8728412Y47101955D01*
X8728411Y47101954D01*
X8470518Y46989935D01*
X8230281Y46843844D01*
X8230278Y46843842D01*
X8012172Y46666400D01*
X7820259Y46460912D01*
X7820247Y46460897D01*
X7658112Y46231203D01*
X7528749Y45981546D01*
X7434589Y45716606D01*
X7377387Y45441331D01*
X7377384Y45441315D01*
X7358197Y45160801D01*
X7358197Y45160800D01*
X432300Y45160800D01*
X432300Y47338800D01*
X53552800Y47338800D01*
X55302800Y47338800D01*
X55302800Y46838800D01*
X53552801Y46838800D01*
X53552801Y46120222D01*
X53555594Y46067608D01*
X53600037Y45837813D01*
X53600038Y45837808D01*
X53682678Y45618828D01*
X53682681Y45618823D01*
X53801140Y45416958D01*
X53801140Y45416957D01*
X53952008Y45238018D01*
X53952017Y45238009D01*
X54130957Y45087141D01*
X54332822Y44968682D01*
X54332827Y44968679D01*
X54551807Y44886039D01*
X54551812Y44886038D01*
X54781604Y44841595D01*
X54781609Y44841594D01*
X54834220Y44838801D01*
X55552800Y44838801D01*
X55552800Y45655788D01*
X55609807Y45622875D01*
X55736974Y45588800D01*
X55868626Y45588800D01*
X55995793Y45622875D01*
X56052800Y45655788D01*
X56052800Y44838801D01*
X56771379Y44838801D01*
X56823992Y44841595D01*
X57053787Y44886038D01*
X57053792Y44886039D01*
X57272772Y44968679D01*
X57272777Y44968682D01*
X57474642Y45087141D01*
X57474643Y45087141D01*
X57653582Y45238009D01*
X57653591Y45238018D01*
X57804459Y45416957D01*
X57804459Y45416958D01*
X57922918Y45618823D01*
X57922921Y45618828D01*
X58005561Y45837808D01*
X58005562Y45837813D01*
X58050005Y46067605D01*
X58050006Y46067610D01*
X58052800Y46120221D01*
X58052800Y46838800D01*
X56302800Y46838800D01*
X56302800Y46913800D01*
X81629873Y46913800D01*
X81650705Y46742230D01*
X81650706Y46742228D01*
X81711993Y46580627D01*
X81711994Y46580625D01*
X81711996Y46580622D01*
X81810169Y46438392D01*
X81810171Y46438390D01*
X81810172Y46438389D01*
X81939539Y46323781D01*
X82092574Y46243462D01*
X82260384Y46202100D01*
X82260387Y46202100D01*
X82433213Y46202100D01*
X82433216Y46202100D01*
X82601026Y46243462D01*
X82754061Y46323781D01*
X82883428Y46438389D01*
X82981607Y46580627D01*
X83042894Y46742228D01*
X83063727Y46913800D01*
X83042894Y47085372D01*
X82981607Y47246973D01*
X82918224Y47338800D01*
X82883430Y47389209D01*
X82754061Y47503819D01*
X82601029Y47584137D01*
X82601027Y47584138D01*
X82601026Y47584138D01*
X82433216Y47625500D01*
X82260384Y47625500D01*
X82092574Y47584138D01*
X82092573Y47584138D01*
X82092570Y47584137D01*
X81939538Y47503819D01*
X81810169Y47389209D01*
X81711996Y47246979D01*
X81711993Y47246973D01*
X81650705Y47085371D01*
X81629873Y46913801D01*
X81629873Y46913800D01*
X56302800Y46913800D01*
X56302800Y47338800D01*
X58052799Y47338800D01*
X58052799Y48057379D01*
X58050005Y48109993D01*
X58005562Y48339788D01*
X58005561Y48339793D01*
X57922921Y48558773D01*
X57922918Y48558778D01*
X57804459Y48760643D01*
X57804459Y48760644D01*
X57653591Y48939583D01*
X57653582Y48939592D01*
X57474642Y49090460D01*
X57272777Y49208919D01*
X57272772Y49208922D01*
X57053792Y49291562D01*
X57053787Y49291563D01*
X56823995Y49336006D01*
X56823990Y49336007D01*
X56771379Y49338800D01*
X56052800Y49338800D01*
X56052800Y48521812D01*
X55995793Y48554725D01*
X55868626Y48588800D01*
X55736974Y48588800D01*
X55609807Y48554725D01*
X55552800Y48521812D01*
X55552800Y49338800D01*
X54834221Y49338800D01*
X54781607Y49336006D01*
X54551812Y49291563D01*
X54551807Y49291562D01*
X54332827Y49208922D01*
X54332822Y49208919D01*
X54130957Y49090460D01*
X54130956Y49090460D01*
X53952017Y48939592D01*
X53952008Y48939583D01*
X53801140Y48760644D01*
X53801140Y48760643D01*
X53682681Y48558778D01*
X53682678Y48558773D01*
X53600038Y48339793D01*
X53600037Y48339788D01*
X53555594Y48109996D01*
X53555593Y48109991D01*
X53552800Y48057380D01*
X53552800Y47338800D01*
X432300Y47338800D01*
X432300Y48463200D01*
X38399073Y48463200D01*
X38419905Y48291630D01*
X38419906Y48291628D01*
X38481193Y48130027D01*
X38481194Y48130025D01*
X38481196Y48130022D01*
X38579369Y47987792D01*
X38579371Y47987790D01*
X38579372Y47987789D01*
X38708739Y47873181D01*
X38861774Y47792862D01*
X39029584Y47751500D01*
X39029587Y47751500D01*
X39202413Y47751500D01*
X39202416Y47751500D01*
X39370226Y47792862D01*
X39523261Y47873181D01*
X39652628Y47987789D01*
X39750807Y48130027D01*
X39812094Y48291628D01*
X39832927Y48463200D01*
X39812094Y48634772D01*
X39750807Y48796373D01*
X39750803Y48796379D01*
X39652630Y48938609D01*
X39651520Y48939592D01*
X39523261Y49053219D01*
X39486905Y49072300D01*
X39370229Y49133537D01*
X39370227Y49133538D01*
X39370226Y49133538D01*
X39202416Y49174900D01*
X39029584Y49174900D01*
X38861774Y49133538D01*
X38861773Y49133538D01*
X38861770Y49133537D01*
X38708738Y49053219D01*
X38579369Y48938609D01*
X38481196Y48796379D01*
X38481193Y48796373D01*
X38419905Y48634771D01*
X38399073Y48463201D01*
X38399073Y48463200D01*
X432300Y48463200D01*
X432300Y50847834D01*
X432417Y50853778D01*
X450465Y51313131D01*
X451397Y51324982D01*
X475706Y51530371D01*
X505083Y51778581D01*
X506943Y51790317D01*
X515674Y51834211D01*
X548554Y51999512D01*
X3280300Y51999512D01*
X3311962Y51759011D01*
X3373226Y51530371D01*
X3374746Y51524701D01*
X3374749Y51524692D01*
X3467570Y51300600D01*
X3467577Y51300586D01*
X3588863Y51090512D01*
X3736527Y50898072D01*
X3736536Y50898061D01*
X3908060Y50726537D01*
X3908071Y50726528D01*
X3957680Y50688462D01*
X4100511Y50578864D01*
X4310588Y50457576D01*
X4310593Y50457574D01*
X4310599Y50457571D01*
X4449503Y50400036D01*
X4534700Y50364746D01*
X4769011Y50301962D01*
X4977849Y50274469D01*
X5009511Y50270300D01*
X5009512Y50270300D01*
X5252089Y50270300D01*
X5280067Y50273984D01*
X5492589Y50301962D01*
X5630069Y50338800D01*
X58252800Y50338800D01*
X59069788Y50338800D01*
X59036875Y50281793D01*
X59002800Y50154626D01*
X59002800Y50022974D01*
X59036875Y49895807D01*
X59069788Y49838800D01*
X58252801Y49838800D01*
X58252801Y49274590D01*
X58263200Y49142465D01*
X58318176Y48924285D01*
X58411229Y48719423D01*
X58539365Y48534469D01*
X58698468Y48375366D01*
X58883422Y48247230D01*
X59088286Y48154176D01*
X59088285Y48154176D01*
X59306468Y48099200D01*
X59438600Y48088801D01*
X60252800Y48088801D01*
X60252800Y49588800D01*
X60752800Y49588800D01*
X60752800Y48088801D01*
X61566988Y48088801D01*
X61567010Y48088802D01*
X61699135Y48099201D01*
X61917315Y48154177D01*
X62122177Y48247230D01*
X62307131Y48375366D01*
X62466234Y48534469D01*
X62594370Y48719423D01*
X62687424Y48924286D01*
X62742400Y49142469D01*
X62752799Y49274593D01*
X62752800Y49274610D01*
X62752800Y49784000D01*
X72587473Y49784000D01*
X72608305Y49612430D01*
X72608306Y49612428D01*
X72669593Y49450827D01*
X72669594Y49450825D01*
X72669596Y49450822D01*
X72767769Y49308592D01*
X72767771Y49308590D01*
X72767772Y49308589D01*
X72897139Y49193981D01*
X73050174Y49113662D01*
X73217984Y49072300D01*
X73217987Y49072300D01*
X73390813Y49072300D01*
X73390816Y49072300D01*
X73558626Y49113662D01*
X73711661Y49193981D01*
X73841028Y49308589D01*
X73939207Y49450827D01*
X74000494Y49612428D01*
X74021327Y49784000D01*
X74000494Y49955572D01*
X73939207Y50117173D01*
X73939203Y50117179D01*
X73841030Y50259409D01*
X73815763Y50281793D01*
X73711661Y50374019D01*
X73558629Y50454337D01*
X73558627Y50454338D01*
X73558626Y50454338D01*
X73390816Y50495700D01*
X73217984Y50495700D01*
X73050174Y50454338D01*
X73050173Y50454338D01*
X73050170Y50454337D01*
X72897138Y50374019D01*
X72767769Y50259409D01*
X72669596Y50117179D01*
X72669593Y50117173D01*
X72608305Y49955571D01*
X72587473Y49784001D01*
X72587473Y49784000D01*
X62752800Y49784000D01*
X62752800Y49838800D01*
X61935812Y49838800D01*
X61968725Y49895807D01*
X62002800Y50022974D01*
X62002800Y50154626D01*
X61968725Y50281793D01*
X61935812Y50338800D01*
X62752799Y50338800D01*
X62752799Y50902988D01*
X62752798Y50903011D01*
X62742399Y51035136D01*
X62687423Y51253316D01*
X62639510Y51358800D01*
X74644873Y51358800D01*
X74665705Y51187230D01*
X74665706Y51187228D01*
X74726993Y51025627D01*
X74726994Y51025625D01*
X74726996Y51025622D01*
X74825169Y50883392D01*
X74825171Y50883390D01*
X74825172Y50883389D01*
X74954539Y50768781D01*
X75107574Y50688462D01*
X75275384Y50647100D01*
X75275387Y50647100D01*
X75448213Y50647100D01*
X75448216Y50647100D01*
X75616026Y50688462D01*
X75769061Y50768781D01*
X75898428Y50883389D01*
X75996607Y51025627D01*
X76057894Y51187228D01*
X76078727Y51358800D01*
X76057894Y51530372D01*
X75996607Y51691973D01*
X75996603Y51691979D01*
X75898430Y51834209D01*
X75769061Y51948819D01*
X75672474Y51999512D01*
X94720300Y51999512D01*
X94751962Y51759011D01*
X94813226Y51530371D01*
X94814746Y51524701D01*
X94814749Y51524692D01*
X94907570Y51300600D01*
X94907577Y51300586D01*
X95028863Y51090512D01*
X95176527Y50898072D01*
X95176536Y50898061D01*
X95348060Y50726537D01*
X95348071Y50726528D01*
X95397680Y50688462D01*
X95540511Y50578864D01*
X95750588Y50457576D01*
X95750593Y50457574D01*
X95750599Y50457571D01*
X95889503Y50400036D01*
X95974700Y50364746D01*
X96209011Y50301962D01*
X96417849Y50274469D01*
X96449511Y50270300D01*
X96449512Y50270300D01*
X96692089Y50270300D01*
X96720067Y50273984D01*
X96932589Y50301962D01*
X97166900Y50364746D01*
X97391012Y50457576D01*
X97601089Y50578864D01*
X97793538Y50726535D01*
X97965065Y50898062D01*
X98112736Y51090511D01*
X98234024Y51300588D01*
X98326854Y51524700D01*
X98389638Y51759011D01*
X98421300Y51999512D01*
X98421300Y52242088D01*
X98420903Y52245100D01*
X98404884Y52366782D01*
X98389638Y52482589D01*
X98326854Y52716900D01*
X98274238Y52843927D01*
X98234029Y52941001D01*
X98234026Y52941007D01*
X98234024Y52941012D01*
X98112736Y53151089D01*
X97965065Y53343538D01*
X97793538Y53515065D01*
X97755103Y53544557D01*
X97601088Y53662737D01*
X97391014Y53784023D01*
X97391000Y53784030D01*
X97166908Y53876851D01*
X97166904Y53876853D01*
X97166900Y53876854D01*
X96932589Y53939638D01*
X96746399Y53964150D01*
X96692089Y53971300D01*
X96692088Y53971300D01*
X96449512Y53971300D01*
X96449511Y53971300D01*
X96209010Y53939638D01*
X95974700Y53876854D01*
X95974691Y53876851D01*
X95750599Y53784030D01*
X95750585Y53784023D01*
X95540511Y53662737D01*
X95348071Y53515073D01*
X95348060Y53515064D01*
X95176536Y53343540D01*
X95176527Y53343529D01*
X95028863Y53151089D01*
X94907577Y52941015D01*
X94907570Y52941001D01*
X94814749Y52716909D01*
X94814746Y52716900D01*
X94751962Y52482590D01*
X94720697Y52245100D01*
X94720300Y52242088D01*
X94720300Y51999512D01*
X75672474Y51999512D01*
X75616029Y52029137D01*
X75616027Y52029138D01*
X75616026Y52029138D01*
X75448216Y52070500D01*
X75275384Y52070500D01*
X75107574Y52029138D01*
X75107573Y52029138D01*
X75107570Y52029137D01*
X74954538Y51948819D01*
X74825169Y51834209D01*
X74726996Y51691979D01*
X74726993Y51691973D01*
X74665705Y51530371D01*
X74644873Y51358801D01*
X74644873Y51358800D01*
X62639510Y51358800D01*
X62594370Y51458178D01*
X62466234Y51643132D01*
X62307131Y51802235D01*
X62122177Y51930371D01*
X61917313Y52023425D01*
X61917314Y52023425D01*
X61699131Y52078401D01*
X61567007Y52088800D01*
X60752800Y52088800D01*
X60752800Y50588800D01*
X60252800Y50588800D01*
X60252800Y52088800D01*
X59438612Y52088800D01*
X59438589Y52088799D01*
X59306464Y52078400D01*
X59088284Y52023424D01*
X58883422Y51930371D01*
X58698468Y51802235D01*
X58539365Y51643132D01*
X58411229Y51458178D01*
X58318175Y51253315D01*
X58263199Y51035132D01*
X58252800Y50903008D01*
X58252800Y50338800D01*
X5630069Y50338800D01*
X5726900Y50364746D01*
X5951012Y50457576D01*
X6161089Y50578864D01*
X6353538Y50726535D01*
X6525065Y50898062D01*
X6672736Y51090511D01*
X6794024Y51300588D01*
X6886854Y51524700D01*
X6949638Y51759011D01*
X6981300Y51999512D01*
X6981300Y52242088D01*
X6980903Y52245100D01*
X6964884Y52366782D01*
X6949638Y52482589D01*
X6886854Y52716900D01*
X6834238Y52843927D01*
X6794029Y52941001D01*
X6794026Y52941007D01*
X6794024Y52941012D01*
X6733467Y53045900D01*
X37841315Y53045900D01*
X37861207Y52843928D01*
X37861207Y52843927D01*
X37920121Y52649713D01*
X38015790Y52470728D01*
X38015792Y52470726D01*
X38144543Y52313843D01*
X38277572Y52204669D01*
X38301427Y52185091D01*
X38390920Y52137257D01*
X38480414Y52089421D01*
X38674626Y52030508D01*
X38876600Y52010615D01*
X39078574Y52030508D01*
X39272786Y52089421D01*
X39451774Y52185092D01*
X39608657Y52313843D01*
X39737408Y52470726D01*
X39833079Y52649714D01*
X39891992Y52843926D01*
X39911885Y53045900D01*
X42841315Y53045900D01*
X42861207Y52843928D01*
X42861207Y52843927D01*
X42920121Y52649713D01*
X43015790Y52470728D01*
X43015792Y52470726D01*
X43144543Y52313843D01*
X43277572Y52204669D01*
X43301427Y52185091D01*
X43390920Y52137257D01*
X43480414Y52089421D01*
X43674626Y52030508D01*
X43876600Y52010615D01*
X44078574Y52030508D01*
X44272786Y52089421D01*
X44451774Y52185092D01*
X44608657Y52313843D01*
X44737408Y52470726D01*
X44833079Y52649714D01*
X44891992Y52843926D01*
X44903109Y52956800D01*
X70641873Y52956800D01*
X70662705Y52785230D01*
X70662706Y52785228D01*
X70723993Y52623627D01*
X70723994Y52623625D01*
X70723996Y52623622D01*
X70822169Y52481392D01*
X70822171Y52481390D01*
X70822172Y52481389D01*
X70951539Y52366781D01*
X71104574Y52286462D01*
X71272384Y52245100D01*
X71272387Y52245100D01*
X71445213Y52245100D01*
X71445216Y52245100D01*
X71613026Y52286462D01*
X71766061Y52366781D01*
X71895428Y52481389D01*
X71993607Y52623627D01*
X72054894Y52785228D01*
X72075727Y52956800D01*
X72054894Y53128372D01*
X71993607Y53289973D01*
X71993603Y53289979D01*
X71895430Y53432209D01*
X71766061Y53546819D01*
X71613029Y53627137D01*
X71613027Y53627138D01*
X71613026Y53627138D01*
X71445216Y53668500D01*
X71272384Y53668500D01*
X71104574Y53627138D01*
X71104573Y53627138D01*
X71104570Y53627137D01*
X70951538Y53546819D01*
X70822169Y53432209D01*
X70723996Y53289979D01*
X70723993Y53289973D01*
X70662705Y53128371D01*
X70641873Y52956801D01*
X70641873Y52956800D01*
X44903109Y52956800D01*
X44911885Y53045900D01*
X44891992Y53247874D01*
X44833079Y53442086D01*
X44833078Y53442088D01*
X44737409Y53621073D01*
X44698486Y53668500D01*
X44608657Y53777957D01*
X44451774Y53906708D01*
X44451775Y53906708D01*
X44451772Y53906710D01*
X44272786Y54002379D01*
X44272787Y54002379D01*
X44078572Y54061293D01*
X43876600Y54081185D01*
X43674627Y54061293D01*
X43674626Y54061293D01*
X43480412Y54002379D01*
X43301427Y53906710D01*
X43144543Y53777957D01*
X43015790Y53621073D01*
X42920121Y53442088D01*
X42861207Y53247874D01*
X42861207Y53247873D01*
X42841315Y53045900D01*
X39911885Y53045900D01*
X39891992Y53247874D01*
X39833079Y53442086D01*
X39833078Y53442088D01*
X39737409Y53621073D01*
X39698486Y53668500D01*
X39608657Y53777957D01*
X39451774Y53906708D01*
X39451775Y53906708D01*
X39451772Y53906710D01*
X39272786Y54002379D01*
X39272787Y54002379D01*
X39078572Y54061293D01*
X38876600Y54081185D01*
X38674627Y54061293D01*
X38674626Y54061293D01*
X38480412Y54002379D01*
X38301427Y53906710D01*
X38144543Y53777957D01*
X38015790Y53621073D01*
X37920121Y53442088D01*
X37861207Y53247874D01*
X37861207Y53247873D01*
X37841315Y53045900D01*
X6733467Y53045900D01*
X6672736Y53151089D01*
X6525065Y53343538D01*
X6353538Y53515065D01*
X6315103Y53544557D01*
X6161088Y53662737D01*
X5951014Y53784023D01*
X5951000Y53784030D01*
X5726908Y53876851D01*
X5726904Y53876853D01*
X5726900Y53876854D01*
X5492589Y53939638D01*
X5306399Y53964150D01*
X5252089Y53971300D01*
X5252088Y53971300D01*
X5009512Y53971300D01*
X5009511Y53971300D01*
X4769010Y53939638D01*
X4534700Y53876854D01*
X4534691Y53876851D01*
X4310599Y53784030D01*
X4310585Y53784023D01*
X4100511Y53662737D01*
X3908071Y53515073D01*
X3908060Y53515064D01*
X3736536Y53343540D01*
X3736527Y53343529D01*
X3588863Y53151089D01*
X3467577Y52941015D01*
X3467570Y52941001D01*
X3374749Y52716909D01*
X3374746Y52716900D01*
X3311962Y52482590D01*
X3280697Y52245100D01*
X3280300Y52242088D01*
X3280300Y51999512D01*
X548554Y51999512D01*
X596052Y52238299D01*
X598820Y52249830D01*
X722813Y52689475D01*
X726470Y52700729D01*
X884572Y53129284D01*
X889104Y53140225D01*
X1080343Y53555054D01*
X1085728Y53565622D01*
X1308929Y53964177D01*
X1315101Y53974248D01*
X1568886Y54354065D01*
X1575852Y54363652D01*
X1858642Y54722371D01*
X1866361Y54731406D01*
X1947152Y54818805D01*
X2176398Y55066803D01*
X2184801Y55075205D01*
X2334270Y55213372D01*
X2520196Y55385242D01*
X2529233Y55392960D01*
X2887948Y55675748D01*
X2897535Y55682714D01*
X3277352Y55936499D01*
X3287423Y55942671D01*
X3685978Y56165872D01*
X3696546Y56171257D01*
X4111375Y56362496D01*
X4122316Y56367028D01*
X4550871Y56525130D01*
X4562125Y56528787D01*
X5001770Y56652780D01*
X5013301Y56655548D01*
X5461289Y56744658D01*
X5473019Y56746517D01*
X5926622Y56800204D01*
X5938465Y56801135D01*
X6397822Y56819184D01*
X6403766Y56819300D01*
X6455651Y56819300D01*
X36987916Y56819300D01*
X37063616Y56799016D01*
G37*
%TD.AperFunction*%
%TD*%
M02*
