%TF.GenerationSoftware,KiCad,Pcbnew,8.0.1-rc1*%
%TF.CreationDate,2024-04-25T22:15:09-05:00*%
%TF.ProjectId,USB-HUB,5553422d-4855-4422-9e6b-696361645f70,rev?*%
%TF.SameCoordinates,PXa983cd0PYa38e500*%
%TF.FileFunction,Paste,Top*%
%TF.FilePolarity,Positive*%
%FSLAX46Y46*%
G04 Gerber Fmt 4.6, Leading zero omitted, Abs format (unit mm)*
G04 Created by KiCad (PCBNEW 8.0.1-rc1) date 2024-04-25 22:15:09*
%MOMM*%
%LPD*%
G01*
G04 APERTURE LIST*
G04 Aperture macros list*
%AMRoundRect*
0 Rectangle with rounded corners*
0 $1 Rounding radius*
0 $2 $3 $4 $5 $6 $7 $8 $9 X,Y pos of 4 corners*
0 Add a 4 corners polygon primitive as box body*
4,1,4,$2,$3,$4,$5,$6,$7,$8,$9,$2,$3,0*
0 Add four circle primitives for the rounded corners*
1,1,$1+$1,$2,$3*
1,1,$1+$1,$4,$5*
1,1,$1+$1,$6,$7*
1,1,$1+$1,$8,$9*
0 Add four rect primitives between the rounded corners*
20,1,$1+$1,$2,$3,$4,$5,0*
20,1,$1+$1,$4,$5,$6,$7,0*
20,1,$1+$1,$6,$7,$8,$9,0*
20,1,$1+$1,$8,$9,$2,$3,0*%
G04 Aperture macros list end*
%ADD10RoundRect,0.225000X-0.225000X-0.250000X0.225000X-0.250000X0.225000X0.250000X-0.225000X0.250000X0*%
%ADD11RoundRect,0.250000X0.712500X2.475000X-0.712500X2.475000X-0.712500X-2.475000X0.712500X-2.475000X0*%
%ADD12RoundRect,0.200000X-0.200000X-0.275000X0.200000X-0.275000X0.200000X0.275000X-0.200000X0.275000X0*%
%ADD13RoundRect,0.218750X0.218750X0.381250X-0.218750X0.381250X-0.218750X-0.381250X0.218750X-0.381250X0*%
%ADD14RoundRect,0.225000X-0.250000X0.225000X-0.250000X-0.225000X0.250000X-0.225000X0.250000X0.225000X0*%
%ADD15RoundRect,0.200000X0.200000X0.275000X-0.200000X0.275000X-0.200000X-0.275000X0.200000X-0.275000X0*%
%ADD16R,5.500000X4.500000*%
%ADD17RoundRect,0.150000X0.512500X0.150000X-0.512500X0.150000X-0.512500X-0.150000X0.512500X-0.150000X0*%
%ADD18RoundRect,0.250000X-0.550000X1.500000X-0.550000X-1.500000X0.550000X-1.500000X0.550000X1.500000X0*%
%ADD19RoundRect,0.225000X0.250000X-0.225000X0.250000X0.225000X-0.250000X0.225000X-0.250000X-0.225000X0*%
%ADD20RoundRect,0.218750X-0.218750X-0.256250X0.218750X-0.256250X0.218750X0.256250X-0.218750X0.256250X0*%
%ADD21RoundRect,0.225000X0.225000X0.250000X-0.225000X0.250000X-0.225000X-0.250000X0.225000X-0.250000X0*%
%ADD22RoundRect,0.150000X-0.150000X0.512500X-0.150000X-0.512500X0.150000X-0.512500X0.150000X0.512500X0*%
%ADD23RoundRect,0.218750X-0.218750X-0.381250X0.218750X-0.381250X0.218750X0.381250X-0.218750X0.381250X0*%
%ADD24RoundRect,0.200000X0.275000X-0.200000X0.275000X0.200000X-0.275000X0.200000X-0.275000X-0.200000X0*%
%ADD25RoundRect,0.218750X-0.256250X0.218750X-0.256250X-0.218750X0.256250X-0.218750X0.256250X0.218750X0*%
%ADD26RoundRect,0.150000X-0.512500X-0.150000X0.512500X-0.150000X0.512500X0.150000X-0.512500X0.150000X0*%
%ADD27RoundRect,0.218750X0.218750X0.256250X-0.218750X0.256250X-0.218750X-0.256250X0.218750X-0.256250X0*%
%ADD28RoundRect,0.200000X-0.275000X0.200000X-0.275000X-0.200000X0.275000X-0.200000X0.275000X0.200000X0*%
%ADD29RoundRect,0.062500X0.117500X0.062500X-0.117500X0.062500X-0.117500X-0.062500X0.117500X-0.062500X0*%
%ADD30RoundRect,0.250000X0.550000X-1.500000X0.550000X1.500000X-0.550000X1.500000X-0.550000X-1.500000X0*%
%ADD31R,0.650000X0.400000*%
%ADD32RoundRect,0.150000X0.150000X-0.512500X0.150000X0.512500X-0.150000X0.512500X-0.150000X-0.512500X0*%
%ADD33R,0.400000X1.350000*%
%ADD34R,1.500000X1.900000*%
%ADD35RoundRect,0.250000X-0.250000X0.250000X-0.250000X-0.250000X0.250000X-0.250000X0.250000X0.250000X0*%
%ADD36R,1.200000X1.400000*%
%ADD37RoundRect,0.247500X0.247500X-0.247500X0.247500X0.247500X-0.247500X0.247500X-0.247500X-0.247500X0*%
%ADD38RoundRect,0.062500X0.062500X-0.350000X0.062500X0.350000X-0.062500X0.350000X-0.062500X-0.350000X0*%
%ADD39RoundRect,0.062500X0.350000X-0.062500X0.350000X0.062500X-0.350000X0.062500X-0.350000X-0.062500X0*%
G04 APERTURE END LIST*
D10*
%TO.C,C31*%
X75221800Y29387800D03*
X76771800Y29387800D03*
%TD*%
D11*
%TO.C,F1*%
X27314300Y13004800D03*
X20539300Y13004800D03*
%TD*%
D12*
%TO.C,R15*%
X79997800Y10464800D03*
X81647800Y10464800D03*
%TD*%
D13*
%TO.C,FB3*%
X28037300Y24815800D03*
X25912300Y24815800D03*
%TD*%
D14*
%TO.C,C36*%
X66691300Y38654800D03*
X66691300Y37104800D03*
%TD*%
D15*
%TO.C,R13*%
X51675800Y43484800D03*
X50025800Y43484800D03*
%TD*%
D14*
%TO.C,C37*%
X61103300Y38654800D03*
X61103300Y37104800D03*
%TD*%
D16*
%TO.C,SW1*%
X11886800Y4876800D03*
X30386800Y4876800D03*
%TD*%
D14*
%TO.C,C21*%
X37642800Y48450800D03*
X37642800Y46900800D03*
%TD*%
D17*
%TO.C,D8*%
X22016300Y18023800D03*
X22016300Y18973800D03*
X22016300Y19923800D03*
X19741300Y19923800D03*
X19741300Y18973800D03*
X19741300Y18023800D03*
%TD*%
D18*
%TO.C,C32*%
X82346800Y31452800D03*
X82346800Y26052800D03*
%TD*%
D19*
%TO.C,C28*%
X73075800Y52996800D03*
X73075800Y54546800D03*
%TD*%
D20*
%TO.C,D1*%
X69621300Y42976800D03*
X71196300Y42976800D03*
%TD*%
D14*
%TO.C,C40*%
X80822800Y14046800D03*
X80822800Y12496800D03*
%TD*%
D15*
%TO.C,R16*%
X73011800Y8432800D03*
X71361800Y8432800D03*
%TD*%
%TO.C,R11*%
X93687300Y9067800D03*
X92037300Y9067800D03*
%TD*%
D21*
%TO.C,C1*%
X39052800Y24942800D03*
X37502800Y24942800D03*
%TD*%
D19*
%TO.C,C2*%
X67614800Y47154800D03*
X67614800Y48704800D03*
%TD*%
D22*
%TO.C,U1*%
X71358800Y48940300D03*
X70408800Y48940300D03*
X69458800Y48940300D03*
X69458800Y46665300D03*
X71358800Y46665300D03*
%TD*%
D12*
%TO.C,R12*%
X88760800Y48183800D03*
X90410800Y48183800D03*
%TD*%
D17*
%TO.C,LS4*%
X77642300Y52821800D03*
X77642300Y53771800D03*
X77642300Y54721800D03*
X75367300Y54721800D03*
X75367300Y52821800D03*
%TD*%
D19*
%TO.C,C10*%
X45643800Y30898800D03*
X45643800Y32448800D03*
%TD*%
D14*
%TO.C,C14*%
X42595800Y25209800D03*
X42595800Y23659800D03*
%TD*%
%TO.C,C35*%
X33705800Y55181800D03*
X33705800Y53631800D03*
%TD*%
D19*
%TO.C,C9*%
X56565800Y24675800D03*
X56565800Y26225800D03*
%TD*%
D10*
%TO.C,C7*%
X51472800Y35610800D03*
X53022800Y35610800D03*
%TD*%
D23*
%TO.C,FB5*%
X74934300Y45897800D03*
X77059300Y45897800D03*
%TD*%
D24*
%TO.C,R18*%
X47802800Y10147800D03*
X47802800Y11797800D03*
%TD*%
D25*
%TO.C,D4*%
X15417800Y45034300D03*
X15417800Y43459300D03*
%TD*%
D19*
%TO.C,C27*%
X79933800Y52996800D03*
X79933800Y54546800D03*
%TD*%
D12*
%TO.C,R14*%
X50025800Y41833800D03*
X51675800Y41833800D03*
%TD*%
D23*
%TO.C,FB4*%
X74934300Y31292800D03*
X77059300Y31292800D03*
%TD*%
D26*
%TO.C,LS2*%
X25837300Y34401800D03*
X25837300Y33451800D03*
X25837300Y32501800D03*
X28112300Y32501800D03*
X28112300Y34401800D03*
%TD*%
D14*
%TO.C,C6*%
X68884800Y53149800D03*
X68884800Y51599800D03*
%TD*%
D27*
%TO.C,D6*%
X90373300Y9067800D03*
X88798300Y9067800D03*
%TD*%
D21*
%TO.C,C3*%
X71183800Y44627800D03*
X69633800Y44627800D03*
%TD*%
D18*
%TO.C,C34*%
X82346800Y49707800D03*
X82346800Y44307800D03*
%TD*%
D28*
%TO.C,R8*%
X41071800Y29069800D03*
X41071800Y27419800D03*
%TD*%
D25*
%TO.C,D14*%
X45770800Y11760300D03*
X45770800Y10185300D03*
%TD*%
D21*
%TO.C,C26*%
X71498800Y24175300D03*
X69948800Y24175300D03*
%TD*%
D16*
%TO.C,SW2*%
X71322800Y4876800D03*
X89822800Y4876800D03*
%TD*%
D29*
%TO.C,D12*%
X31126800Y12496800D03*
X31966800Y12496800D03*
%TD*%
D21*
%TO.C,C25*%
X71498800Y31033300D03*
X69948800Y31033300D03*
%TD*%
D24*
%TO.C,R17*%
X53898800Y10147800D03*
X53898800Y11797800D03*
%TD*%
D30*
%TO.C,C30*%
X20878800Y24147800D03*
X20878800Y29547800D03*
%TD*%
D14*
%TO.C,C16*%
X61391800Y27368800D03*
X61391800Y25818800D03*
%TD*%
D31*
%TO.C,LS5*%
X62981800Y38546800D03*
X62981800Y37896800D03*
X62981800Y37246800D03*
X64881800Y37246800D03*
X64881800Y38546800D03*
%TD*%
D19*
%TO.C,C39*%
X49072800Y48297800D03*
X49072800Y49847800D03*
%TD*%
D28*
%TO.C,R10*%
X15544800Y28942800D03*
X15544800Y27292800D03*
%TD*%
D14*
%TO.C,C17*%
X59740800Y27368800D03*
X59740800Y25818800D03*
%TD*%
D28*
%TO.C,R5*%
X56184800Y36435800D03*
X56184800Y34785800D03*
%TD*%
%TO.C,R6*%
X44881800Y37705800D03*
X44881800Y36055800D03*
%TD*%
D26*
%TO.C,LS1*%
X33076300Y48625800D03*
X33076300Y47675800D03*
X33076300Y46725800D03*
X35351300Y46725800D03*
X35351300Y48625800D03*
%TD*%
D14*
%TO.C,C4*%
X35483800Y55181800D03*
X35483800Y53631800D03*
%TD*%
D19*
%TO.C,C38*%
X47040800Y48297800D03*
X47040800Y49847800D03*
%TD*%
D14*
%TO.C,C15*%
X40944800Y25209800D03*
X40944800Y23659800D03*
%TD*%
D28*
%TO.C,R7*%
X47802800Y37705800D03*
X47802800Y36055800D03*
%TD*%
D23*
%TO.C,FB6*%
X46994300Y46659800D03*
X49119300Y46659800D03*
%TD*%
D28*
%TO.C,R3*%
X49453800Y37705800D03*
X49453800Y36055800D03*
%TD*%
%TO.C,R4*%
X44246800Y25259800D03*
X44246800Y23609800D03*
%TD*%
D21*
%TO.C,C19*%
X27749800Y46913800D03*
X26199800Y46913800D03*
%TD*%
D14*
%TO.C,C8*%
X50850800Y20383800D03*
X50850800Y18833800D03*
%TD*%
D21*
%TO.C,C29*%
X27749800Y26847800D03*
X26199800Y26847800D03*
%TD*%
D15*
%TO.C,R1*%
X70217800Y41325800D03*
X68567800Y41325800D03*
%TD*%
D30*
%TO.C,C20*%
X20878800Y44213800D03*
X20878800Y49613800D03*
%TD*%
D17*
%TO.C,D3*%
X22016300Y37581800D03*
X22016300Y38531800D03*
X22016300Y39481800D03*
X19741300Y39481800D03*
X19741300Y38531800D03*
X19741300Y37581800D03*
%TD*%
D25*
%TO.C,D13*%
X55732800Y11760300D03*
X55732800Y10185300D03*
%TD*%
D14*
%TO.C,C42*%
X73202800Y13779800D03*
X73202800Y12229800D03*
%TD*%
D28*
%TO.C,R9*%
X15417800Y48373800D03*
X15417800Y46723800D03*
%TD*%
D26*
%TO.C,D9*%
X81463300Y20050800D03*
X81463300Y19100800D03*
X81463300Y18150800D03*
X83738300Y18150800D03*
X83738300Y19100800D03*
X83738300Y20050800D03*
%TD*%
D10*
%TO.C,C33*%
X75221800Y47802800D03*
X76771800Y47802800D03*
%TD*%
D32*
%TO.C,D2*%
X40756800Y46091800D03*
X41706800Y46091800D03*
X42656800Y46091800D03*
X42656800Y48366800D03*
X41706800Y48366800D03*
X40756800Y48366800D03*
%TD*%
D25*
%TO.C,D5*%
X15544800Y25603300D03*
X15544800Y24028300D03*
%TD*%
D14*
%TO.C,C5*%
X66852800Y53149800D03*
X66852800Y51599800D03*
%TD*%
D10*
%TO.C,C12*%
X56679800Y29006800D03*
X58229800Y29006800D03*
%TD*%
D26*
%TO.C,D10*%
X81463300Y39100800D03*
X81463300Y38150800D03*
X81463300Y37200800D03*
X83738300Y37200800D03*
X83738300Y38150800D03*
X83738300Y39100800D03*
%TD*%
D14*
%TO.C,C11*%
X45897800Y25209800D03*
X45897800Y23659800D03*
%TD*%
%TO.C,C24*%
X30403800Y34226800D03*
X30403800Y32676800D03*
%TD*%
%TO.C,C23*%
X23418800Y34226800D03*
X23418800Y32676800D03*
%TD*%
D10*
%TO.C,C13*%
X51472800Y33832800D03*
X53022800Y33832800D03*
%TD*%
D23*
%TO.C,FB1*%
X66806300Y54787800D03*
X68931300Y54787800D03*
%TD*%
D12*
%TO.C,R2*%
X63072300Y35593800D03*
X64722300Y35593800D03*
%TD*%
D10*
%TO.C,C18*%
X37502800Y31292800D03*
X39052800Y31292800D03*
%TD*%
D14*
%TO.C,C22*%
X30657800Y48450800D03*
X30657800Y46900800D03*
%TD*%
D27*
%TO.C,D7*%
X90373300Y49834800D03*
X88798300Y49834800D03*
%TD*%
D33*
%TO.C,J1*%
X42676600Y53045900D03*
X42026600Y53045900D03*
X41376600Y53045900D03*
X40726600Y53045900D03*
X40076600Y53045900D03*
D34*
X42376600Y55745900D03*
X40376600Y55745900D03*
%TD*%
D30*
%TO.C,C41*%
X63042800Y9796800D03*
X63042800Y15196800D03*
%TD*%
D13*
%TO.C,FB2*%
X28037300Y44881800D03*
X25912300Y44881800D03*
%TD*%
D35*
%TO.C,D11*%
X69646800Y14254800D03*
X69646800Y11754800D03*
%TD*%
D36*
%TO.C,X1*%
X37427800Y29217800D03*
X37427800Y27017800D03*
X39127800Y27017800D03*
X39127800Y29217800D03*
%TD*%
D37*
%TO.C,U2*%
X49620800Y26720800D03*
X50850800Y26720800D03*
X52080800Y26720800D03*
X49620800Y27950800D03*
X50850800Y27950800D03*
X52080800Y27950800D03*
X49620800Y29180800D03*
X50850800Y29180800D03*
X52080800Y29180800D03*
D38*
X48850800Y25013300D03*
X49350800Y25013300D03*
X49850800Y25013300D03*
X50350800Y25013300D03*
X50850800Y25013300D03*
X51350800Y25013300D03*
X51850800Y25013300D03*
X52350800Y25013300D03*
X52850800Y25013300D03*
D39*
X53788300Y25950800D03*
X53788300Y26450800D03*
X53788300Y26950800D03*
X53788300Y27450800D03*
X53788300Y27950800D03*
X53788300Y28450800D03*
X53788300Y28950800D03*
X53788300Y29450800D03*
X53788300Y29950800D03*
D38*
X52850800Y30888300D03*
X52350800Y30888300D03*
X51850800Y30888300D03*
X51350800Y30888300D03*
X50850800Y30888300D03*
X50350800Y30888300D03*
X49850800Y30888300D03*
X49350800Y30888300D03*
X48850800Y30888300D03*
D39*
X47913300Y29950800D03*
X47913300Y29450800D03*
X47913300Y28950800D03*
X47913300Y28450800D03*
X47913300Y27950800D03*
X47913300Y27450800D03*
X47913300Y26950800D03*
X47913300Y26450800D03*
X47913300Y25950800D03*
%TD*%
D26*
%TO.C,LS6*%
X75621300Y13954800D03*
X75621300Y13004800D03*
X75621300Y12054800D03*
X77896300Y12054800D03*
X77896300Y13954800D03*
%TD*%
D22*
%TO.C,LS3*%
X71673800Y28741800D03*
X70723800Y28741800D03*
X69773800Y28741800D03*
X69773800Y26466800D03*
X71673800Y26466800D03*
%TD*%
M02*
