M48
; DRILL file {KiCad 8.0.1-rc1} date 2024-04-25T22:15:25-0500
; FORMAT={-:-/ absolute / inch / decimal}
; #@! TF.CreationDate,2024-04-25T22:15:25-05:00
; #@! TF.GenerationSoftware,Kicad,Pcbnew,8.0.1-rc1
; #@! TF.FileFunction,MixedPlating,1,4
FMAT,2
INCH
; #@! TA.AperFunction,Plated,PTH,ViaDrill
T1C0.0150
; #@! TA.AperFunction,Plated,PTH,ComponentDrill
T2C0.0236
; #@! TA.AperFunction,Plated,PTH,ComponentDrill
T3C0.0335
; #@! TA.AperFunction,Plated,PTH,ComponentDrill
T4C0.0362
; #@! TA.AperFunction,Plated,PTH,ComponentDrill
T5C0.0394
; #@! TA.AperFunction,Plated,PTH,ComponentDrill
T6C0.0512
; #@! TA.AperFunction,Plated,PTH,ComponentDrill
T7C0.0906
; #@! TA.AperFunction,NonPlated,NPTH,ComponentDrill
T8C0.1260
%
G90
G05
T1
X0.302Y0.352
X0.302Y0.052
X0.417Y0.616
X0.423Y1.384
X0.477Y0.559
X0.478Y1.319
X0.502Y0.352
X0.502Y0.052
X0.538Y1.383
X0.541Y0.614
X0.602Y1.602
X0.602Y1.452
X0.611Y1.184
X0.702Y2.052
X0.702Y1.852
X0.702Y1.602
X0.702Y1.452
X0.702Y1.252
X0.702Y1.052
X0.702Y0.852
X0.702Y0.652
X0.702Y0.452
X0.702Y0.052
X0.758Y1.955
X0.762Y1.164
X0.822Y1.432
X0.822Y1.262
X0.824Y0.658
X0.884Y1.164
X0.885Y1.952
X0.902Y2.052
X0.902Y1.652
X0.902Y0.852
X0.902Y0.652
X0.902Y0.452
X0.902Y0.252
X0.902Y0.052
X0.965Y1.243
X0.984Y1.063
X1.018Y1.203
X1.031Y1.899
X1.062Y1.202
X1.102Y2.052
X1.102Y1.652
X1.102Y1.452
X1.102Y0.852
X1.102Y0.652
X1.107Y1.206
X1.152Y1.412
X1.171Y0.587
X1.172Y0.632
X1.178Y1.796
X1.182Y0.492
X1.196Y1.414
X1.197Y1.243
X1.202Y1.152
X1.202Y1.052
X1.202Y0.952
X1.302Y2.052
X1.302Y1.652
X1.302Y0.852
X1.302Y0.652
X1.302Y0.452
X1.307Y1.757
X1.358Y1.76
X1.402Y2.052
X1.402Y1.759
X1.4277Y1.0917
X1.477Y0.932
X1.484Y1.775
X1.502Y1.652
X1.502Y1.452
X1.502Y0.652
X1.502Y0.452
X1.539Y1.283
X1.54Y1.908
X1.612Y0.887
X1.677Y0.887
X1.702Y1.652
X1.702Y1.452
X1.702Y0.652
X1.702Y0.452
X1.727Y1.952
X1.738Y1.217
X1.742Y0.887
X1.777Y1.317
X1.792Y0.887
X1.802Y0.252
X1.853Y0.978
X1.882Y1.527
X1.902Y2.052
X1.902Y1.652
X1.902Y0.652
X1.936Y0.398
X1.947Y1.527
X1.952Y1.152
X1.952Y1.102
X1.952Y1.052
X2.002Y1.152
X2.002Y1.102
X2.002Y1.052
X2.002Y0.639
X2.002Y0.452
X2.002Y0.252
X2.052Y1.152
X2.052Y1.102
X2.052Y1.052
X2.071Y0.399
X2.077Y1.902
X2.077Y1.802
X2.077Y0.637
X2.099Y1.504
X2.102Y2.052
X2.102Y1.652
X2.102Y1.452
X2.119Y0.637
X2.127Y1.402
X2.13Y1.361
X2.162Y0.978
X2.177Y0.932
X2.202Y0.252
X2.212Y1.482
X2.2685Y1.032
X2.277Y0.936
X2.279Y1.447
X2.302Y2.052
X2.302Y0.652
X2.302Y0.452
X2.327Y1.877
X2.331Y0.936
X2.336Y1.143
X2.338Y1.447
X2.352Y0.977
X2.374Y1.169
X2.407Y1.412
X2.417Y0.977
X2.422Y1.13
X2.427Y1.877
X2.468Y1.129
X2.5015Y2.0525
X2.508Y1.343
X2.52Y1.297
X2.602Y0.852
X2.622Y1.982
X2.662Y1.967
X2.672Y1.477
X2.687Y1.132
X2.687Y1.084
X2.688Y1.041
X2.6975Y1.983
X2.702Y0.652
X2.702Y0.452
X2.707Y0.956
X2.7155Y1.222
X2.772Y1.872
X2.8094Y2.0849
X2.817Y1.282
X2.827Y2.147
X2.832Y1.597
X2.847Y1.552
X2.872Y0.952
X2.877Y0.388
X2.886Y1.96
X2.902Y0.652
X2.927Y1.987
X2.967Y2.022
X3.072Y1.882
X3.074Y1.156
X3.102Y2.167
X3.102Y1.652
X3.102Y1.452
X3.102Y1.052
X3.102Y0.852
X3.102Y0.652
X3.102Y0.252
X3.102Y0.052
X3.132Y0.617
X3.179Y1.052
X3.182Y1.777
X3.182Y0.617
X3.197Y2.147
X3.207Y1.132
X3.212Y1.367
X3.23Y0.492
X3.242Y1.847
X3.252Y1.132
X3.252Y0.614
X3.257Y1.3678
X3.302Y2.052
X3.302Y1.847
X3.302Y1.777
X3.302Y1.652
X3.302Y1.407
X3.302Y1.052
X3.302Y0.852
X3.302Y0.6421
X3.302Y0.452
X3.302Y0.252
X3.302Y0.052
X3.402Y1.452
X3.442Y0.402
X3.442Y0.357
X3.447Y1.897
X3.461Y0.889
X3.465Y1.6434
X3.502Y1.852
X3.502Y1.252
X3.502Y1.052
X3.502Y0.452
X3.502Y0.052
X3.525Y0.946
X3.527Y1.707
X3.587Y1.642
X3.588Y0.891
X3.702Y0.252
X3.702Y0.052
X3.738Y0.375
X3.902Y0.252
T3
X1.5306Y2.0884
X1.7274Y2.0884
T4
X0.4775Y1.6571
X0.4775Y1.5587
X0.4775Y1.48
X0.4775Y1.3815
X0.4775Y0.8898
X0.4775Y0.7914
X0.4775Y0.7126
X0.4775Y0.6142
X3.527Y1.6434
X3.527Y1.545
X3.527Y1.4663
X3.527Y1.3678
X3.527Y0.8898
X3.527Y0.7914
X3.527Y0.7126
X3.527Y0.6142
T6
X1.387Y0.087
X1.687Y0.087
X1.852Y0.087
X2.152Y0.087
X2.317Y0.087
X2.617Y0.087
T7
X0.3708Y1.778
X0.3708Y1.2607
X0.3708Y1.0107
X0.3708Y0.4933
X3.6337Y1.7643
X3.6337Y1.247
X3.6337Y1.0107
X3.6337Y0.4933
T8
X0.202Y2.052
X0.202Y0.202
X3.802Y2.052
X3.802Y0.202
T2
G00X1.4912Y2.1809
M15
G01X1.4912Y2.2085
M16
G05
G00X1.7668Y2.2085
M15
G01X1.7668Y2.1809
M16
G05
T5
G00X2.197Y1.8933
M15
G01X2.197Y1.8145
M16
G05
G00X2.4214Y1.972
M15
G01X2.3426Y1.972
M16
G05
G00X2.4214Y1.7358
M15
G01X2.3426Y1.7358
M16
G05
M30
